<?xml version="1.0" encoding="UTF-8" standalone="no"?>
<!-- Created with Inkscape (http://www.inkscape.org/) -->

<svg
   width="844.29602mm"
   height="844.29492mm"
   viewBox="0 0 844.29602 844.29492"
   version="1.1"
   id="svg1356"
   inkscape:version="1.3.2 (091e20e, 2023-11-25, custom)"
   sodipodi:docname="Logo_SEXCOG.svg"
   inkscape:export-filename="..\Mini\Logo_SEXCOG_mini.png"
   inkscape:export-xdpi="3.0084236"
   inkscape:export-ydpi="3.0084236"
   xmlns:inkscape="http://www.inkscape.org/namespaces/inkscape"
   xmlns:sodipodi="http://sodipodi.sourceforge.net/DTD/sodipodi-0.dtd"
   xmlns="http://www.w3.org/2000/svg"
   xmlns:svg="http://www.w3.org/2000/svg">
  <sodipodi:namedview
     id="namedview1358"
     pagecolor="#ffffff"
     bordercolor="#666666"
     borderopacity="1.0"
     inkscape:pageshadow="2"
     inkscape:pageopacity="0.0"
     inkscape:pagecheckerboard="0"
     inkscape:document-units="mm"
     showgrid="false"
     inkscape:zoom="0.13259988"
     inkscape:cx="904.97819"
     inkscape:cy="1274.5109"
     inkscape:window-width="1350"
     inkscape:window-height="1058"
     inkscape:window-x="206"
     inkscape:window-y="47"
     inkscape:window-maximized="0"
     inkscape:current-layer="g1390"
     inkscape:showpageshadow="2"
     inkscape:deskcolor="#d1d1d1" />
  <defs
     id="defs1353" />
  <g
     inkscape:label="Layer 1"
     inkscape:groupmode="layer"
     id="layer1"
     transform="translate(328.64566,290.19735)">
    <g
       id="g7530"
       inkscape:export-filename="D:\GDrive\Logos, firmas y fotos de perfil\Logos CODEC\Logo_NEUROGROUP.png"
       inkscape:export-xdpi="60"
       inkscape:export-ydpi="60"
       transform="translate(-790.38212,921.06527)">
      <text
         xml:space="preserve"
         style="font-size:33.7677px;line-height:1.25;font-family:sans-serif;fill:#ffffff;fill-opacity:1;stroke-width:0.904495"
         x="980.30463"
         y="557.85742"
         id="text6916-2-9-1-4-6-9-6-8-3-9-4-1-3-6-0-3-3"
         inkscape:export-xdpi="300"
         inkscape:export-ydpi="300"
         inkscape:export-filename="D:\GDrive\Logos, firmas y fotos de perfil\Logos LACH\Nuveas ideas\EvoCo.png"><tspan
           sodipodi:role="line"
           id="tspan6914-6-9-3-8-3-7-1-0-7-2-9-7-8-6-8-9-3"
           x="980.30463"
           y="557.85742"
           style="font-style:normal;font-variant:normal;font-weight:bold;font-stretch:normal;font-family:'Century Gothic';-inkscape-font-specification:'Century Gothic';fill:#ffffff;stroke-width:0.904495">Universidad El Bosque</tspan></text>
      <text
         xml:space="preserve"
         style="font-size:32.1516px;line-height:1.25;font-family:sans-serif;fill:#ffffff;stroke:none;stroke-width:0.861208"
         x="980.3537"
         y="530.31879"
         id="text6916-2-9-5-4-0-1-3-3-7-8-8-9-0"
         inkscape:export-xdpi="300"
         inkscape:export-ydpi="300"><tspan
           sodipodi:role="line"
           id="tspan6914-6-9-1-1-8-22-5-7-4-2-5-8-7"
           x="980.3537"
           y="530.31879"
           style="font-style:normal;font-variant:normal;font-weight:normal;font-stretch:normal;font-family:'Century Gothic';-inkscape-font-specification:'Century Gothic';fill:#ffffff;stroke:none;stroke-width:0.861208">Facultad de Psicología</tspan></text>
    </g>
    <g
       id="g7569"
       transform="translate(-1985.3053,-52.473946)">
      <g
         id="g1390">
        <g
           id="g1-85-8"
           transform="translate(3.3066406e-5)">
          <ellipse
             style="fill:#333333;fill-opacity:1;stroke:#ffffff;stroke-width:2.94401;stroke-miterlimit:4;stroke-dasharray:none"
             id="path177398-5-7-4-4-6-4-4-0-3-2-7-4-9-4-9-6-8-6-02-2-3-4-8-1"
             cx="2078.8076"
             cy="184.42406"
             rx="420.67599"
             ry="420.67542" />
          <g
             id="g6862-2-0"
             transform="matrix(1.1268917,0,0,1.1268917,-263.78341,23.961764)">
            <path
               id="path6-2-1-6-7-0-9-6-6-6-7"
               style="fill:#ffffff;fill-opacity:1;stroke-width:0.855906"
               d="m 2097.6592,91.943594 c -22.3275,0 -40.4919,-17.339429 -40.4919,-38.652673 0,-21.313253 18.1644,-38.652663 40.4919,-38.652663 22.3274,0 40.4921,17.33941 40.4921,38.652663 0,21.313244 -18.1647,38.652673 -40.4921,38.652673 z m 0,-60.246899 c -12.4737,0 -22.6218,9.687013 -22.6218,21.594226 0,11.907232 10.1481,21.594217 22.6218,21.594217 12.4739,0 22.6218,-9.686985 22.6218,-21.594217 0,-11.907213 -10.1479,-21.594226 -22.6218,-21.594226 z"
               sodipodi:nodetypes="ssssssssss" />
            <path
               style="fill:#aaaaff;fill-opacity:1;stroke-width:0.855906"
               d="m 2097.2029,239.31837 h -36.7924 c -16.0946,0 -29.1877,-12.49843 -29.1877,-27.86183 v -13.71517 c 0,-4.68462 -3.1652,-8.81816 -7.8747,-10.28575 -8.7674,-2.73116 -17.391,-6.14971 -25.6276,-10.16116 -4.3197,-2.10397 -9.5593,-1.2878 -13.0361,2.03039 l -10.1708,9.70958 c -11.3807,10.86276 -29.8974,10.86276 -41.2779,0 l -26.0165,-24.83463 c -11.3805,-10.8636 -11.3805,-28.5392 0,-39.4028 l 10.1717,-9.70874 c 3.4779,-3.31987 4.3329,-8.31975 2.127,-12.44409 -4.2032,-7.862317 -7.7844,-16.093432 -10.6456,-24.464183 -1.5366,-4.495638 -5.8677,-7.51696 -10.7751,-7.51696 h -14.3671 c -16.0945,0 -29.1876,-12.498449 -29.1876,-27.861004 V 7.6799401 c 0,-15.3633925 13.0931,-27.8618331 29.1876,-27.8618331 h 14.3679 c 4.9076,0 9.2377,-3.02134 10.7751,-7.516959 2.8612,-8.369913 6.4434,-16.601866 10.6457,-24.464196 2.2041,-4.123501 1.349,-9.12421 -2.1279,-12.444086 l -10.1717,-9.708736 c -11.3805,-10.863594 -11.3805,-28.5392 0,-39.40279 l 26.0165,-24.83465 c 11.3805,-10.86192 29.8972,-10.86275 41.2779,0 l 10.1708,9.70957 c 3.4777,3.31988 8.7155,4.13605 13.0361,2.0304 8.2375,-4.01227 16.8602,-7.43166 25.6284,-10.16199 4.7096,-1.46676 7.8747,-5.60113 7.8747,-10.28574 v -13.71351 c 0,-15.36338 13.0932,-27.86183 29.1877,-27.86183 h 36.7926 c 16.0945,0 29.1877,12.49845 29.1877,27.86183 v 13.71601 c 0,4.68462 3.1651,8.81816 7.8747,10.28575 8.7673,2.73117 17.3911,6.14972 25.6274,10.16115 4.3215,2.10398 9.5602,1.28781 13.0364,-2.03039 l 10.1707,-9.70957 c 11.3814,-10.8636 29.8981,-10.86277 41.2779,0 l 26.0163,24.83465 c 11.3807,10.86359 11.3807,28.539182 0,39.402776 l -10.1715,9.708745 c -3.4779,3.319876 -4.333,8.319757 -2.1271,12.444087 4.2033,7.863166 7.7854,16.094263 10.6457,24.464195 1.5365,4.495619 5.8677,7.516969 10.7752,7.516969 h 14.3677 c 16.0946,0 29.1877,12.4984308 29.1877,27.8618326 V 42.802851 c 0,15.363402 -13.0931,27.861833 -29.1877,27.861833 h -14.3677 c -4.9075,0 -9.2379,3.021349 -10.7752,7.516969 -2.8612,8.369085 -6.4424,16.601028 -10.6448,24.463367 -2.205,4.12349 -1.35,9.12504 2.127,12.44408 l 10.1717,9.70873 c 11.3805,10.8636 11.3805,28.5392 0,39.40279 l -26.0165,24.83466 c -11.3806,10.86275 -29.8973,10.8636 -41.2778,0 l -10.1709,-9.70958 c -3.4769,-3.31904 -8.7147,-4.13604 -13.0362,-2.03039 -8.2372,4.01227 -16.8601,7.43167 -25.6283,10.16198 -4.7096,1.46677 -7.8747,5.60113 -7.8747,10.28575 v 13.71517 c 0,15.36256 -13.0941,27.86016 -29.1887,27.86016 z M 1992.672,159.06946 c 4.4765,0 8.9845,0.99178 13.1711,3.03137 7.4087,3.60837 15.1642,6.68323 23.0502,9.13927 12.0824,3.76475 20.2006,14.4151 20.2006,26.50211 v 13.71517 c 0,5.95653 5.0765,10.80337 11.3174,10.80337 h 36.7926 c 6.2408,0 11.3174,-4.84684 11.3174,-10.80337 v -13.71517 c 0,-12.08701 8.1174,-22.73821 20.1996,-26.50211 7.8861,-2.45604 15.6416,-5.5309 23.0502,-9.14011 11.2422,-5.47486 24.8224,-3.39931 33.7931,5.16378 l 10.1716,9.70875 c 4.4117,4.21214 11.5927,4.21129 16.006,0 l 26.0165,-24.83466 c 4.4125,-4.2113 4.4125,-11.06596 0,-15.27893 l -10.1708,-9.70957 c -8.9714,-8.56395 -11.1457,-21.52818 -5.4096,-32.257971 3.7801,-7.072069 7.0014,-14.475305 9.5742,-22.003136 3.944,-11.53341 15.1011,-19.282853 27.7634,-19.282853 h 14.3677 c 6.2401,0 11.3176,-4.846006 11.3176,-10.803377 V 7.680787 c 0,-5.9573806 -5.0775,-10.8033862 -11.3176,-10.8033862 h -14.3677 c -12.6623,0 -23.8203,-7.7485958 -27.7634,-19.2820158 -2.5728,-7.527831 -5.7941,-14.931057 -9.5759,-22.003145 -5.7362,-10.73146 -3.5619,-23.69402 5.4096,-32.257949 l 10.1707,-9.709583 c 4.4126,-4.211305 4.4126,-11.06596 0,-15.278928 l -26.0155,-24.83297 c -4.4117,-4.21215 -11.5916,-4.21215 -16.006,0 l -10.1717,9.70873 c -8.9715,8.56394 -22.5534,10.6378 -33.793,5.16378 -7.4087,-3.60838 -15.1642,-6.68323 -23.0502,-9.13926 -12.0823,-3.76476 -20.2005,-14.4151 -20.2005,-26.50211 v -13.71853 c 0,-5.95652 -5.0766,-10.80337 -11.3175,-10.80337 h -36.7916 c -6.2409,0 -11.3176,4.84685 -11.3176,10.80337 v 13.71601 c 0,12.08702 -8.1172,22.7382 -20.1996,26.50212 -7.886,2.45604 -15.6415,5.53089 -23.0502,9.1401 -11.243,5.47487 -24.8215,3.39932 -33.7929,-5.16377 l -10.1718,-9.70959 c -4.4124,-4.21298 -11.5934,-4.21298 -16.0058,0 l -26.0157,24.83381 c -4.4126,4.211307 -4.4126,11.065962 0,15.278932 l 10.1707,9.709583 c 8.9716,8.563939 11.1449,21.527318 5.4105,32.257959 -3.7802,7.072069 -7.0023,14.474477 -9.575,22.003136 -3.9441,11.53342 -15.1011,19.2828532 -27.7634,19.2828532 h -14.3695 c -6.24,0 -11.3175,4.8460148 -11.3175,10.8033769 V 42.801176 c 0,5.95739 5.0775,10.803395 11.3175,10.803395 h 14.3679 c 12.6621,0 23.8202,7.748596 27.7633,19.282007 2.5728,7.528677 5.7949,14.931066 9.5749,22.003154 5.7362,10.732298 3.5612,23.694848 -5.4095,32.258778 l -10.1717,9.70875 c -4.4126,4.2113 -4.4126,11.06595 0,15.27893 l 26.0166,24.83465 c 4.4117,4.21214 11.5925,4.21297 16.006,0 l 10.1716,-9.70874 c 5.6293,-5.37369 13.0774,-8.19264 20.6227,-8.19264 z"
               id="path12-6-2-0-4-2-3-4-8-0-2"
               sodipodi:nodetypes="sssssscccssscssssssscscssccscsssssssssscsssscsssssssssssscsscsssssscssssssscscccssscssssssscsccccsscssssssscscccssscsssssssscsccsss" />
            <g
               id="g28345-1-4-7-5-2-6-4"
               transform="matrix(-1.2607044,0,0,1.2607044,248.42389,-726.68644)">
              <g
                 id="g31766-2-0-6-9"
                 transform="matrix(1,0,0,-1,0,1192.8686)">
                <path
                   style="fill:#aaaaff;fill-opacity:1;stroke-width:0.678911"
                   d="m -1451.8738,516.58056 c -46.1259,0 -83.6534,35.82214 -83.6534,79.85342 0,44.03128 37.5275,79.85409 83.6534,79.85409 46.1259,0 83.6534,-35.82281 83.6534,-79.85343 0,-44.03062 -37.5268,-79.85408 -83.6534,-79.85408 z m 0,146.17662 c -38.3113,0 -69.4793,-29.75218 -69.4793,-66.3232 0,-36.57102 31.168,-66.32319 69.4793,-66.32319 38.3113,0 69.4793,29.75217 69.4793,66.32319 0,36.57102 -31.168,66.3232 -69.4793,66.3232 z"
                   id="path6-2-1-6-5-1-3-7-4-92"
                   sodipodi:nodetypes="ssssssssss" />
                <path
                   style="fill:#ffffff;stroke-width:0.678911"
                   d="m -1451.8742,654.50196 c -3.9142,0 -7.087,-3.02868 -7.087,-6.76511 0,-3.73643 3.1728,-6.76511 7.087,-6.76511 16.4832,0 31.9143,-8.44131 40.2695,-22.02924 1.9818,-3.22304 6.3248,-4.30092 9.6998,-2.40982 3.3757,1.89177 4.5063,6.0368 2.5245,9.25917 -10.8901,17.70909 -31.004,28.71011 -52.4938,28.71011 z"
                   id="path8-7-5-0-9-7-9-8-6-3" />
                <path
                   style="fill:#ffffff;stroke-width:0.678911"
                   d="m -1398.3655,608.11888 c -0.2245,0 -0.451,-0.01 -0.6789,-0.0305 -3.8969,-0.35355 -6.7549,-3.65617 -6.3838,-7.37536 0.141,-1.41352 0.2119,-2.85291 0.2119,-4.27836 0,-3.73644 3.1728,-6.76512 7.0871,-6.76512 3.9142,0 7.087,3.02868 7.087,6.76512 0,1.85196 -0.093,3.7225 -0.2759,5.55988 -0.3495,3.50095 -3.4361,6.12435 -7.0474,6.12435 z"
                   id="path10-2-0-5-2-6-1-7-2-6" />
              </g>
            </g>
            <g
               id="g35330-6-8-67"
               style="stroke:#aaaaff;stroke-opacity:1"
               transform="matrix(0.92046961,0,0,0.92046961,-911.21852,276.15784)">
              <path
                 style="fill:none;stroke:#aaaaff;stroke-width:4.325;stroke-linecap:butt;stroke-linejoin:miter;stroke-miterlimit:4;stroke-dasharray:none;stroke-opacity:1"
                 d="m 3248.3704,-163.22641 -37.2189,111.80228 74.2793,-1.9046 z"
                 id="path32306-6-9-7" />
              <path
                 style="fill:none;stroke:#aaaaff;stroke-width:4.325;stroke-linecap:butt;stroke-linejoin:miter;stroke-miterlimit:4;stroke-dasharray:none;stroke-opacity:1"
                 d="m 3323.5228,-196.17355 64.7563,103.80057 48.5672,-50.47184 z"
                 id="path32308-1-6-4"
                 sodipodi:nodetypes="ccc" />
              <path
                 style="fill:none;stroke:#aaaaff;stroke-width:4.325;stroke-linecap:butt;stroke-linejoin:miter;stroke-miterlimit:4;stroke-dasharray:none;stroke-opacity:1"
                 d="m 3482.5567,-241.88389 -4.7615,-64.75632 -124.7512,36.18736 z"
                 id="path32310-9-0-6" />
              <path
                 style="fill:none;stroke:#aaaaff;stroke-width:4.325;stroke-linecap:butt;stroke-linejoin:miter;stroke-miterlimit:4;stroke-dasharray:none;stroke-opacity:1"
                 d="m 3437.7986,-404.72698 -50.4718,-44.75805 -66.6609,106.65747 z"
                 id="path32312-2-7-9" />
              <path
                 style="fill:none;stroke:#aaaaff;stroke-width:4.325;stroke-linecap:butt;stroke-linejoin:miter;stroke-miterlimit:4;stroke-dasharray:none;stroke-opacity:1"
                 d="m 3212.1038,-494.24307 h 71.4224 l -34.9876,124.72748 z"
                 id="path32314-4-0-60"
                 sodipodi:nodetypes="cccc" />
              <path
                 style="fill:none;stroke:#aaaaff;stroke-width:4.325;stroke-linecap:butt;stroke-linejoin:miter;stroke-miterlimit:4;stroke-dasharray:none;stroke-opacity:1"
                 d="m 3108.3032,-451.38962 -47.6149,48.56723 109.5144,60.94713 z"
                 id="path32316-7-1-9" />
              <path
                 style="fill:none;stroke:#aaaaff;stroke-width:4.325;stroke-linecap:butt;stroke-linejoin:miter;stroke-miterlimit:4;stroke-dasharray:none;stroke-opacity:1"
                 d="m 3017.8348,-301.87871 0.9523,62.85172 124.7512,-32.37816 z"
                 id="path32318-9-0-9" />
              <path
                 style="fill:none;stroke:#aaaaff;stroke-width:4.325;stroke-linecap:butt;stroke-linejoin:miter;stroke-miterlimit:4;stroke-dasharray:none;stroke-opacity:1"
                 d="m 3061.6406,-136.17873 46.6626,41.90115 71.4224,-108.56206 z"
                 id="path32320-6-1-5" />
              <path
                 style="fill:none;stroke:#aaaaff;stroke-width:4.325;stroke-linecap:butt;stroke-linejoin:miter;stroke-miterlimit:4;stroke-dasharray:none;stroke-opacity:1"
                 d="m 3179.7256,-202.83964 v 0 l -6.6661,91.42068 75.3109,-51.80745 z"
                 id="path34987-8-3-1"
                 sodipodi:nodetypes="ccccc" />
              <path
                 style="fill:none;stroke:#aaaaff;stroke-width:4.325;stroke-linecap:butt;stroke-linejoin:miter;stroke-miterlimit:4;stroke-dasharray:none;stroke-opacity:1"
                 d="m 3248.3704,-163.22641 75.1524,-32.94714 -0.9523,87.61149 -74.2001,-54.66435"
                 id="path34989-8-7-7"
                 sodipodi:nodetypes="cccc" />
              <path
                 style="fill:none;stroke:#aaaaff;stroke-width:4.325;stroke-linecap:butt;stroke-linejoin:miter;stroke-miterlimit:4;stroke-dasharray:none;stroke-opacity:1"
                 d="m 3323.5228,-196.17355 29.5212,-74.2793 63.804,68.56551 z"
                 id="path34991-9-7-3"
                 sodipodi:nodetypes="cccc" />
              <path
                 style="fill:none;stroke:#aaaaff;stroke-width:4.325;stroke-linecap:butt;stroke-linejoin:miter;stroke-miterlimit:4;stroke-dasharray:none;stroke-opacity:1"
                 d="m 3353.044,-270.45285 -32.3781,-72.37471 93.3252,-1.9046 z"
                 id="path34993-5-2-0"
                 sodipodi:nodetypes="cccc" />
              <path
                 style="fill:none;stroke:#aaaaff;stroke-width:4.325;stroke-linecap:butt;stroke-linejoin:miter;stroke-miterlimit:4;stroke-dasharray:none;stroke-opacity:1"
                 d="m 3320.6659,-342.82756 -72.1273,-26.68803 70.6988,-64.25651 z"
                 id="path34995-9-6-8"
                 sodipodi:nodetypes="cccc" />
              <path
                 style="fill:none;stroke:#aaaaff;stroke-width:4.325;stroke-linecap:butt;stroke-linejoin:miter;stroke-miterlimit:4;stroke-dasharray:none;stroke-opacity:1"
                 d="m 3248.5386,-369.51559 -78.3359,27.64033 6.1899,-92.37299 z"
                 id="path34997-2-4-5"
                 sodipodi:nodetypes="cccc" />
              <path
                 style="fill:none;stroke:#aaaaff;stroke-width:4.325;stroke-linecap:butt;stroke-linejoin:miter;stroke-miterlimit:4;stroke-dasharray:none;stroke-opacity:1"
                 d="m 3170.2027,-341.87526 v 0 l -26.6644,70.47011 -65.2325,-66.18477 z"
                 id="path34999-3-5-0-43"
                 sodipodi:nodetypes="ccccc" />
              <path
                 style="fill:none;stroke:#aaaaff;stroke-width:4.325;stroke-linecap:butt;stroke-linejoin:miter;stroke-miterlimit:4;stroke-dasharray:none;stroke-opacity:1"
                 d="m 3143.5383,-271.40515 36.1873,68.56551 -103.3244,0.9523 z"
                 id="path35001-5-2-9"
                 sodipodi:nodetypes="cccc" />
            </g>
          </g>
          <g
             id="g6836-0-4"
             transform="translate(7.3481562,31.220835)">
            <text
               id="text1589-5-0-1-52-1-0-22-1-8-1-5-7-47-7-2-2-0-1-4-0-4-6-6-6-3-4-2-5-8-8-2-4-6-0-5-6-5-4-2-2-8-6"
               y="397.48416"
               x="1690.7836"
               style="font-style:normal;font-weight:normal;font-size:126.613px;line-height:1.25;font-family:sans-serif;letter-spacing:0px;word-spacing:0px;fill:#aaaaff;fill-opacity:1;stroke:none;stroke-width:1.49557"
               xml:space="preserve"
               transform="scale(1.0386235,0.96281279)"><tspan
                 id="tspan1591-7-3-2-4-0-8-1-3-8-2-4-9-2-2-8-7-0-6-1-7-8-2-5-2-3-1-8-5-5-5-1-7-4-3-7-9-0-6-45-9-2"
                 style="font-style:normal;font-variant:normal;font-weight:normal;font-stretch:normal;font-size:151.936px;font-family:Nunito;-inkscape-font-specification:Nunito;fill:#aaaaff;fill-opacity:1;stroke-width:1.49557"
                 y="397.48416"
                 x="1690.7836"
                 sodipodi:role="line">SEX<tspan
   style="font-style:normal;font-variant:normal;font-weight:bold;font-stretch:normal;font-family:Nunito;-inkscape-font-specification:'Nunito Bold';fill:#ffffff;stroke-width:1.49557"
   id="tspan25971-3-6-0-5-1-0-38">COG</tspan></tspan></text>
            <text
               id="text1589-5-0-1-52-1-0-22-1-5-4-1-5-9-64-6-8-6-2-4-2-1-1-9-3-2-6-4-0-2-7-7-3-7-6-8-1-9-0-6"
               y="431.26984"
               x="1761.328"
               style="font-style:normal;font-variant:normal;font-weight:bold;font-stretch:normal;font-size:44.1629px;line-height:1.25;font-family:Nunito;-inkscape-font-specification:'Nunito Bold';letter-spacing:0px;word-spacing:0px;fill:#ffffff;fill-opacity:1;stroke:none;stroke-width:0.521652"
               xml:space="preserve"><tspan
                 id="tspan1591-7-3-2-4-0-8-1-3-85-5-5-5-7-3-6-2-1-4-0-9-0-8-1-0-0-1-9-3-9-4-8-1-4-6-7-2-9-27"
                 style="font-style:normal;font-variant:normal;font-weight:500;font-stretch:normal;font-size:52.9958px;font-family:Nunito;-inkscape-font-specification:'Nunito Medium';fill:#ffffff;fill-opacity:1;stroke-width:0.521652"
                 y="431.26984"
                 x="1761.328"
                 sodipodi:role="line">Semillero de investigación</tspan></text>
          </g>
          <g
             id="g3-4-0"
             transform="translate(1913.0409,-89.027588)">
            <text
               xml:space="preserve"
               style="font-style:normal;font-variant:normal;font-weight:bold;font-stretch:normal;font-size:33.7677px;line-height:1.25;font-family:Nunito;-inkscape-font-specification:'Nunito Bold';fill:#ffffff;fill-opacity:1;stroke-width:0.904495"
               x="-11.226302"
               y="646.88495"
               id="text6916-2-9-1-4-6-9-6-8-3-9-4-1-3-6-0-3-3-6-5-7"
               inkscape:export-xdpi="300"
               inkscape:export-ydpi="300"
               inkscape:export-filename="D:\GDrive\Logos, firmas y fotos de perfil\Logos LACH\Nuveas ideas\EvoCo.png"><tspan
                 sodipodi:role="line"
                 id="tspan6914-6-9-3-8-3-7-1-0-7-2-9-7-8-6-8-9-3-7-1-6"
                 x="-11.226302"
                 y="646.88495"
                 style="font-style:normal;font-variant:normal;font-weight:bold;font-stretch:normal;font-family:Nunito;-inkscape-font-specification:'Nunito Bold';fill:#ffffff;stroke-width:0.904495">Universidad El Bosque</tspan></text>
            <text
               xml:space="preserve"
               style="font-style:normal;font-variant:normal;font-weight:normal;font-stretch:normal;font-size:35.5036px;line-height:1.25;font-family:nunito;-inkscape-font-specification:nunito;fill:#ffffff;stroke:none;stroke-width:0.950993"
               x="-11.883679"
               y="616.67352"
               id="text6916-2-9-5-4-0-1-3-3-7-8-8-9-0-3-0-7"
               inkscape:export-xdpi="300"
               inkscape:export-ydpi="300"><tspan
                 sodipodi:role="line"
                 id="tspan6914-6-9-1-1-8-22-5-7-4-2-5-8-7-6-3-4"
                 x="-11.883679"
                 y="616.67352"
                 style="font-style:normal;font-variant:normal;font-weight:normal;font-stretch:normal;font-family:nunito;-inkscape-font-specification:nunito;fill:#ffffff;stroke:none;stroke-width:0.950993">Facultad de Psicología</tspan></text>
          </g>
        </g>
      </g>
    </g>
  </g>
</svg>
