<svg version="1.1" id="Layer_1" xmlns="http://www.w3.org/2000/svg" xmlns:xlink="http://www.w3.org/1999/xlink" x="0px" y="0px"
	 width="100%" viewBox="0 0 1024 1024" enable-background="new 0 0 1024 1024" xml:space="preserve">
<path fill="#000000" opacity="1.000000" stroke="none" 
	d="
M162.695541,246.604294 
	C185.660629,235.496277 209.309631,227.452942 234.362381,225.206528 
	C286.134308,220.564285 335.092590,229.449890 378.242371,260.073120 
	C406.167480,279.891449 427.758911,305.305725 437.529572,338.845703 
	C442.438293,355.695984 445.320709,373.118378 449.895721,390.123077 
	C452.004181,397.960052 451.229584,406.669312 446.128906,413.673645 
	C436.873596,426.383148 439.923340,437.615234 448.443146,449.265167 
	C461.624542,467.289459 475.277405,484.949402 488.696930,502.788818 
	C490.504639,505.191986 492.228424,507.633820 493.415558,510.417633 
	C495.762939,515.921997 494.223969,521.927979 489.645569,525.704834 
	C485.542908,529.089355 480.654510,530.746094 475.682434,532.103760 
	C463.060425,535.550415 460.010162,540.925964 464.044373,553.317261 
	C465.331451,557.270691 467.047150,561.088562 468.254242,565.063354 
	C470.609253,572.817627 469.162872,576.580261 462.479126,581.192871 
	C461.833344,581.638550 461.294250,582.238831 460.741394,582.735168 
	C468.068237,594.583984 467.946075,594.921448 458.965942,605.872253 
	C454.596191,611.200928 453.573578,617.516479 454.795776,624.231689 
	C456.080444,631.289856 459.403687,637.734009 460.716736,644.827271 
	C463.222046,658.361206 457.464630,671.243713 445.330658,677.628296 
	C432.929871,684.153198 419.708405,684.217529 406.381317,681.763672 
	C393.629517,679.415771 380.922516,677.040955 367.916656,676.440308 
	C346.015533,675.428833 329.749359,684.788452 318.207062,702.945801 
	C308.551178,718.135559 304.079468,734.917236 302.158752,752.764954 
	C298.687988,785.016113 307.655823,813.900146 324.168579,841.032227 
	C325.380737,843.023926 326.767731,844.933167 327.759979,847.029114 
	C329.287018,850.254883 328.850647,853.297729 325.767578,855.417480 
	C322.932220,857.366882 320.691681,855.618103 318.711517,853.715027 
	C311.384735,846.673340 304.185822,839.497070 296.796478,832.522278 
	C275.786407,812.690918 252.876434,795.334534 228.588562,779.691406 
	C204.697327,764.303772 179.844528,750.805908 153.192520,740.941223 
	C133.699127,733.726074 113.861099,727.529907 92.921249,725.735535 
	C85.475662,725.097595 83.746002,720.188110 88.399170,713.105835 
	C96.758347,700.382812 103.951454,687.094910 109.033821,672.715942 
	C115.698830,653.859314 116.667282,634.402954 115.146233,614.676270 
	C112.998657,586.823914 99.126411,563.533447 86.033951,539.967957 
	C71.881973,514.495483 60.449543,488.034119 55.936554,459.008148 
	C52.957539,439.848145 53.004723,420.727997 55.370277,401.409424 
	C57.842129,381.222809 62.762749,361.818451 71.147156,343.430786 
	C89.153656,303.941071 117.096039,273.210968 154.503784,251.141617 
	C157.084549,249.619049 159.735168,248.214859 162.695541,246.604294 
M181.490814,442.025909 
	C172.256500,458.420074 170.961243,475.030823 180.235214,491.873688 
	C182.612549,496.191223 185.883392,499.692047 190.430908,501.832642 
	C194.110245,503.564514 197.505890,502.619751 199.957733,499.820892 
	C202.316864,497.127930 203.528152,493.809479 201.089203,490.239410 
	C199.399673,487.766327 197.800339,485.221313 196.318024,482.618805 
	C188.774689,469.374756 191.236496,445.636597 213.902084,441.987274 
	C227.241287,439.839539 240.434052,453.273712 237.095154,466.321503 
	C235.615082,472.105347 237.949005,477.445190 242.460251,478.596405 
	C247.836639,479.968475 252.844788,476.721039 254.527130,470.771973 
	C259.408234,453.511658 249.550201,433.271606 232.523117,427.062164 
	C215.229645,420.755524 195.529297,422.712067 181.490814,442.025909 
z"/>
<path fill="#000000" opacity="1.000000" stroke="none" 
	d="
M944.562378,332.493652 
	C956.176697,353.009430 963.172729,374.796356 967.260315,397.505310 
	C972.590942,427.120483 971.007568,456.725952 966.655518,486.352112 
	C962.001892,518.031128 952.426758,548.455994 944.003479,579.191711 
	C937.642212,602.403503 931.727600,625.729919 928.205139,649.588196 
	C927.670593,653.208740 925.627625,655.423523 921.935547,656.475586 
	C883.607727,667.397766 849.410522,686.416382 818.389954,711.019409 
	C794.871094,729.672668 773.650085,750.787292 755.529114,774.915527 
	C747.320007,785.846008 739.763977,797.172302 732.522827,808.733032 
	C731.369507,810.574280 730.007324,812.044373 727.823486,811.826050 
	C725.675171,811.611328 724.412109,809.956116 723.618835,807.987061 
	C722.327759,804.782654 722.831726,801.415222 722.648193,798.104980 
	C721.574402,778.741272 716.466614,760.731018 704.289917,745.262268 
	C697.905457,737.151672 689.902283,730.962830 680.384155,726.841431 
	C679.048279,726.263062 677.715149,725.439392 675.739868,726.047058 
	C676.080261,732.929749 680.362488,738.413025 683.428223,745.480408 
	C671.754639,741.567261 665.024292,733.443115 657.960938,724.270691 
	C657.186890,729.227478 658.866699,732.624390 660.432861,735.900818 
	C661.991150,739.160828 664.062866,742.175476 666.614319,746.489319 
	C655.614441,743.181274 649.048218,735.976440 642.276123,727.642151 
	C641.871582,735.595154 646.682312,740.017395 650.396179,746.465759 
	C636.731873,741.162048 628.936707,732.021790 623.790222,719.664673 
	C622.489929,722.906372 622.649292,722.870850 624.137878,729.548950 
	C624.807190,732.551819 626.904968,735.188049 626.753052,739.256897 
	C614.331604,732.258728 609.116455,720.928833 604.465393,709.103088 
	C605.032410,717.391907 605.714539,725.601379 608.956726,733.447937 
	C596.671326,725.773376 590.379211,714.230103 586.964355,700.589539 
	C586.003418,706.428406 586.292725,712.223206 586.779541,718.152283 
	C573.848938,709.105347 572.263062,695.620667 572.406250,680.932617 
	C568.243469,686.691711 568.045410,692.823486 567.948486,700.226501 
	C563.244019,695.942566 561.968994,691.385559 560.752136,686.885620 
	C559.346069,681.686096 559.397949,676.317139 559.786743,671.003784 
	C560.018616,667.834351 559.272095,665.185608 557.571594,662.548157 
	C551.687073,653.421143 548.377747,643.391052 547.653381,632.552124 
	C547.486389,630.054382 546.400269,628.192749 544.785706,626.385681 
	C538.369263,619.204163 538.476501,613.704285 545.131897,606.778748 
	C547.073975,604.757874 549.192871,602.906860 551.371094,600.845093 
	C549.953857,598.184021 547.233643,597.294556 545.446960,595.419739 
	C542.198425,592.010925 541.210754,587.153320 544.149170,583.677246 
	C546.988525,580.318298 548.271118,576.577881 549.074219,572.489075 
	C551.910645,558.048218 559.014526,545.738342 568.270508,534.582397 
	C570.659790,531.702698 571.394958,529.152527 571.011902,525.210632 
	C568.801453,502.466339 575.106812,483.251007 596.001404,471.190002 
	C602.965210,467.170288 606.735718,461.601501 607.793091,453.802277 
	C609.150024,443.793457 607.340027,434.634705 600.720947,426.789154 
	C597.932068,423.483582 594.829712,420.440033 591.832153,417.313477 
	C574.936340,399.690521 581.213135,378.961670 595.887024,366.560181 
	C604.606384,359.191010 615.047424,355.292755 626.041138,352.861633 
	C628.274658,352.367767 629.499756,351.445374 630.434143,349.447906 
	C643.115417,322.338501 660.984558,299.096466 683.690002,279.715088 
	C703.643250,262.682983 726.894348,251.803238 752.067505,244.764206 
	C770.584045,239.586533 789.365906,238.676712 808.389099,240.516876 
	C851.940796,244.729782 887.920959,264.176453 917.971069,295.291687 
	C928.553467,306.249115 936.813293,318.994202 944.562378,332.493652 
M586.785156,544.307312 
	C584.111389,545.293396 581.629028,546.605164 579.389648,548.397400 
	C570.114197,555.820557 566.308960,566.109558 564.127441,577.281799 
	C562.331604,586.478760 564.898804,589.997986 574.169373,589.582642 
	C590.656921,588.843811 607.143372,589.076477 623.631409,588.993469 
	C625.295410,588.985107 627.000793,588.863953 628.615234,589.171631 
	C631.496826,589.720703 635.250305,589.803528 635.615601,593.563110 
	C635.932739,596.828003 632.819763,598.202881 630.192993,599.330688 
	C624.958618,601.578125 619.460266,602.753906 613.793701,603.349243 
	C600.000305,604.798279 586.163330,603.949402 572.349426,604.250793 
	C566.533325,604.377686 562.219788,607.122559 558.585510,611.268250 
	C556.205078,613.983704 556.758240,616.624146 559.658142,618.439148 
	C561.885986,619.833557 564.448425,620.707275 566.893311,621.738220 
	C572.213196,623.981323 572.670654,625.541199 568.465332,629.389343 
	C565.852539,631.780273 564.908264,634.399780 565.218262,637.795288 
	C565.907166,645.340027 570.241394,650.777405 575.745605,655.251770 
	C589.082397,666.093323 604.706787,665.620300 619.974915,662.033386 
	C652.558960,654.378296 682.912659,614.737915 672.927307,573.818176 
	C670.555237,564.097839 665.744385,555.581909 661.131958,546.940430 
	C656.346680,537.975037 651.333008,529.147461 648.393921,519.330444 
	C646.431152,512.774597 645.779419,506.257782 647.830383,498.779083 
	C648.851074,500.006409 649.371765,500.428070 649.631042,500.973877 
	C658.096802,518.797729 678.535461,514.582520 688.148560,503.766937 
	C703.088013,486.958801 705.529297,466.850983 701.993408,446.561249 
	C697.424927,420.346832 675.274353,398.257568 644.997070,400.334351 
	C634.959534,401.022888 625.515137,403.166809 619.077148,411.931732 
	C615.080566,417.372833 615.959473,423.321777 621.234497,426.606842 
	C624.181335,428.441986 627.365906,427.943115 630.422058,427.135712 
	C639.391724,424.765900 648.102356,424.554504 656.568115,429.118591 
	C669.866577,436.287994 672.516724,453.735168 661.797058,464.164337 
	C656.865417,468.962311 649.043396,470.429810 643.334229,467.628204 
	C638.065491,465.042725 636.521790,461.409088 637.246216,453.297760 
	C637.820557,446.867188 634.108398,440.769165 628.798157,439.656006 
	C626.591797,439.193542 624.387207,438.901886 624.510132,442.482574 
	C625.154785,461.261719 619.538940,476.659851 601.934570,486.274597 
	C594.952087,490.088104 589.910828,496.238556 587.820068,504.280365 
	C587.032898,507.308228 586.601562,510.536346 589.964355,512.173767 
	C593.364502,513.829346 595.600098,511.220459 597.558472,508.943848 
	C598.505798,507.842560 599.052429,506.361725 599.638733,504.992096 
	C600.817322,502.238586 601.743652,499.367950 603.051758,496.680878 
	C606.006653,490.610901 609.750366,488.194153 615.023560,488.724396 
	C620.888916,489.314240 622.912170,493.661041 624.325195,498.467896 
	C629.276672,515.312256 620.338074,532.469543 603.129822,538.942566 
	C598.005676,540.869995 592.712952,542.349609 586.785156,544.307312 
M875.341187,438.489197 
	C875.362366,443.976868 876.473633,449.619659 873.104614,455.296326 
	C868.381104,446.066956 864.239197,436.964111 851.926758,434.631592 
	C856.107178,443.969574 857.664246,452.545074 855.174988,462.549561 
	C849.943848,454.860077 844.941223,448.410645 834.595398,448.350494 
	C838.209534,453.454224 841.440674,457.639984 843.628235,462.506622 
	C850.703003,478.246185 844.744629,494.568237 829.562866,500.807770 
	C825.407288,502.515686 821.283691,502.658142 816.882812,501.615326 
	C811.501160,500.340118 807.207581,502.292511 805.334045,506.237793 
	C803.469177,510.164856 804.784485,514.602356 809.036621,518.117859 
	C811.625305,520.258057 814.582397,521.821960 817.866150,522.629333 
	C826.966675,524.866821 836.031799,524.207642 844.981201,521.878540 
	C860.649597,517.800903 872.342224,507.940735 880.705872,494.666992 
	C897.483948,468.038788 901.502747,440.041077 885.357605,411.632690 
	C869.815186,384.285004 835.773743,377.254822 810.323792,395.377197 
	C792.535950,408.043518 785.394287,433.342133 794.280273,452.283722 
	C795.919128,455.777161 797.807373,459.137939 801.132446,461.332397 
	C804.492188,463.549622 808.259949,463.680115 811.502319,461.618988 
	C815.023621,459.380615 815.413574,455.607086 814.182678,451.800720 
	C813.571411,449.910370 812.478394,448.179749 811.810547,446.303131 
	C807.456299,434.068054 809.182800,422.693726 818.435913,413.548950 
	C826.948425,405.136108 837.642395,402.611603 849.331604,406.045807 
	C865.089478,410.675323 872.648376,422.165405 875.341187,438.489197 
z"/>
</svg>