<svg version="1.1" id="Layer_1" xmlns="http://www.w3.org/2000/svg" xmlns:xlink="http://www.w3.org/1999/xlink" x="0px" y="0px"
	 width="100%" viewBox="0 0 1024 1024" enable-background="new 0 0 1024 1024" xml:space="preserve">
<path fill="#000000" opacity="1.000000" stroke="none" 
	d="
M412.462524,766.535645 
	C432.070862,773.321167 451.859802,777.402832 472.072510,779.779968 
	C488.164703,781.672485 504.333344,782.463196 520.418823,781.438293 
	C546.715393,779.762817 572.370361,774.479187 597.173096,765.197693 
	C622.181702,755.839111 645.237671,743.110413 666.454163,726.939026 
	C674.036560,721.159729 676.183777,713.777161 672.460999,704.044617 
	C667.460266,707.482605 665.438293,713.636353 659.658630,717.556335 
	C659.685852,710.431885 663.377991,704.151367 660.732971,697.082581 
	C656.308105,700.437805 656.732788,706.495117 651.928589,709.921631 
	C651.367676,702.791565 652.125122,695.888855 647.854980,689.336670 
	C643.929871,693.388428 642.884583,698.758728 639.293396,702.369934 
	C635.760498,705.922607 631.944275,708.865051 626.442810,710.567871 
	C627.211975,703.188843 632.005432,697.132446 630.024231,689.438904 
	C625.393616,692.863953 624.020996,698.638184 618.722412,700.606812 
	C616.734802,697.701721 620.169434,695.054138 618.407043,691.724182 
	C611.179871,694.566162 604.960815,700.842468 596.000183,699.587708 
	C596.646179,694.784241 602.059753,692.807556 602.433105,688.290527 
	C601.239624,686.728333 599.837036,687.197205 598.622192,687.551453 
	C569.073730,696.169495 540.891479,674.399841 532.910889,648.525452 
	C532.029846,645.669006 531.426453,642.728088 530.638367,639.841614 
	C529.099731,634.205994 527.504944,628.679871 522.977844,624.424744 
	C516.577271,618.408630 516.801392,613.156006 523.351501,607.150513 
	C523.960876,606.591797 524.748901,606.227844 526.121216,605.343567 
	C518.794312,600.441956 520.931213,594.487427 522.375366,588.385010 
	C525.393311,575.632446 529.076050,563.255676 538.532959,553.532104 
	C540.386963,551.625793 542.203613,549.569214 544.396545,548.128479 
	C550.301392,544.249146 554.067932,539.007202 555.294739,532.085999 
	C557.655579,518.766724 565.293213,509.757690 577.035950,503.342346 
	C586.770508,498.024078 590.793762,486.580963 587.535339,476.255737 
	C586.192139,471.999390 582.985535,468.950500 580.213013,465.638092 
	C571.238342,454.915802 569.819275,442.547028 576.428223,431.909058 
	C579.016174,427.743317 582.503418,424.387756 586.622620,421.763336 
	C590.131042,419.528046 593.552795,416.849854 597.410522,415.528381 
	C608.031677,411.890015 615.103943,404.144867 622.200256,396.085724 
	C638.113159,378.013885 658.401672,367.085907 681.378723,360.724182 
	C696.914612,356.422821 712.798279,354.532898 728.794006,355.810913 
	C756.473267,358.022308 782.323425,366.024292 804.887329,382.838623 
	C811.618225,387.854431 815.774414,393.595215 816.973083,398.878021 
	C810.660034,396.726257 805.218079,392.797180 798.100403,393.017487 
	C808.862061,403.099213 821.543396,411.298889 826.341858,426.979034 
	C820.475464,427.288391 818.020203,422.042297 813.441467,421.731842 
	C812.401611,423.511230 813.733887,424.855042 814.466797,426.174774 
	C823.089844,441.701752 826.805847,458.631561 829.504333,475.995911 
	C831.798340,490.757416 831.950317,505.584778 831.097961,520.312134 
	C829.043457,555.811829 822.869507,590.554077 808.637756,623.465515 
	C808.020142,624.893677 807.925354,626.832397 805.381592,627.170349 
	C803.895447,622.328125 804.437988,616.786560 800.688354,611.846069 
	C798.090271,635.606445 791.896484,657.196899 774.467407,674.168274 
	C773.394043,666.597046 776.190125,659.084290 773.889771,651.680603 
	C772.004211,651.661865 771.788696,653.211304 771.175598,654.226562 
	C757.183105,677.396240 740.971252,698.789978 721.962708,718.161255 
	C694.531982,746.115540 662.740479,767.648865 627.180725,783.642822 
	C601.406555,795.235474 574.358948,802.608643 546.310608,806.498779 
	C526.281860,809.276611 506.166443,810.147583 486.072876,809.150757 
	C437.754211,806.753784 392.521606,793.369141 350.453857,769.348511 
	C299.079895,740.013916 257.764587,700.058777 225.720047,650.549622 
	C207.043671,621.694397 193.058640,590.697754 185.992508,556.801147 
	C180.344040,529.705139 179.600800,502.428375 181.477509,474.910797 
	C182.948380,453.344177 186.671082,432.308380 194.938049,412.312012 
	C208.080734,380.522156 227.315231,353.557861 258.835297,337.645386 
	C285.014252,324.429352 312.739899,320.760132 341.785553,326.212006 
	C362.197968,330.043396 381.501038,336.324188 398.283722,348.770447 
	C421.005341,365.621063 434.313660,388.365356 439.365448,416.144562 
	C441.056213,425.441864 443.184296,434.676300 445.533081,443.831573 
	C447.155731,450.156372 445.747009,455.732147 442.598206,461.037933 
	C435.765015,472.552002 436.495056,483.749634 443.432373,494.930603 
	C452.311218,509.240784 461.719604,523.168945 472.105652,536.441223 
	C477.375305,543.175354 477.882660,548.877991 474.024384,553.742798 
	C471.884277,556.441223 468.884155,557.919434 465.723358,559.085938 
	C463.069580,560.065491 460.346893,560.883545 457.760010,562.014099 
	C450.577637,565.153015 448.379730,570.544617 451.171326,577.895996 
	C451.821289,579.607666 452.636810,581.257751 453.258606,582.978638 
	C455.569061,589.373047 454.543549,592.954407 448.736420,596.559143 
	C446.072296,598.212891 445.470215,599.465149 446.905365,602.449341 
	C449.801147,608.470642 449.084686,611.004395 443.597229,615.335388 
	C438.488159,619.367676 436.631592,624.122131 438.026001,630.647583 
	C439.406372,637.107178 441.129700,643.680359 440.019531,650.384521 
	C437.946014,662.906067 427.948364,670.540344 413.232666,671.233826 
	C402.316315,671.748352 391.742065,669.176392 381.036011,667.812805 
	C362.709137,665.478516 343.227997,670.923828 333.223846,689.280334 
	C330.180176,694.865112 327.459259,700.370422 325.661407,706.533630 
	C323.970612,712.329712 325.861633,715.884155 330.059204,719.377380 
	C339.050537,726.860107 348.715210,733.360352 358.563019,739.618652 
	C375.492218,750.377258 393.391724,759.197205 412.462524,766.535645 
M607.966492,522.601562 
	C607.919983,521.488403 607.380981,520.127258 608.966553,519.667847 
	C610.521851,519.217163 611.364197,520.457336 612.306946,521.381714 
	C616.258911,525.256958 620.909058,528.086182 626.522827,527.472717 
	C635.551941,526.485962 642.811401,522.103943 648.074402,514.532654 
	C655.715271,503.540527 658.577698,491.609161 656.910706,478.190918 
	C653.941101,454.287720 635.415710,432.945679 611.972717,427.857513 
	C602.485107,425.798279 593.754089,427.772766 586.794434,435.089569 
	C583.562927,438.486938 582.455383,442.625519 583.755737,447.096588 
	C584.754089,450.529236 586.878479,452.763062 590.836060,450.666351 
	C592.536682,449.765350 594.320923,449.652557 596.156616,449.588593 
	C610.253784,449.097443 626.489929,461.551483 630.417603,475.643860 
	C631.692566,480.218445 631.712891,484.533844 629.289978,488.641449 
	C625.881104,494.420685 621.052307,498.652771 614.736877,501.013214 
	C607.644043,503.664246 605.080811,502.604950 601.472961,495.862183 
	C600.940735,494.867401 600.615784,493.666809 599.039673,493.115906 
	C593.137146,498.745667 593.881836,506.959869 591.603088,513.952087 
	C588.252380,514.279602 586.346680,510.706879 582.953125,511.693329 
	C576.066162,513.695312 570.982422,517.594116 568.974060,524.613281 
	C568.303223,526.958008 566.004761,530.308411 568.574280,531.892517 
	C571.403259,533.636597 573.514221,530.390198 575.415161,528.334473 
	C576.780151,526.858459 578.202698,525.097961 580.472473,525.976868 
	C582.548950,526.780823 583.048279,528.866455 583.299255,530.908325 
	C584.572144,541.262512 574.396484,554.660706 563.710083,556.704407 
	C562.593567,555.903870 562.631042,554.680115 562.687378,553.540039 
	C562.905823,549.119507 560.801086,548.561768 557.479126,550.499573 
	C542.308411,559.348816 533.988586,572.604980 532.193298,590.039062 
	C531.776001,594.091125 533.616577,596.748535 537.086365,598.454102 
	C540.083862,599.927551 543.252563,600.917236 546.521484,601.624023 
	C559.238892,604.373779 572.121643,605.478760 585.108704,605.682190 
	C588.118835,605.729309 592.347595,604.644470 592.802856,609.033752 
	C593.242371,613.271240 588.729980,613.020081 586.004578,614.217346 
	C585.857178,614.281982 585.677368,614.272095 585.513000,614.299194 
	C575.090088,616.014038 564.629456,615.709351 554.182007,614.701477 
	C547.742065,614.080261 541.338562,613.089478 534.905640,612.383118 
	C533.301392,612.207031 531.352173,612.024597 530.577454,613.984741 
	C529.736023,616.113525 531.207214,617.461182 532.735291,618.545105 
	C535.770020,620.697937 539.213379,621.975952 542.849609,622.590393 
	C554.709351,624.594421 566.629578,625.616882 578.588867,623.616577 
	C595.108582,620.853638 608.830139,612.077515 612.235962,594.171265 
	C614.033508,584.720642 612.928101,572.994202 603.008911,568.462402 
	C599.281250,566.759277 600.981812,564.724060 603.204712,562.868347 
	C610.070496,557.136658 612.225525,549.846863 611.132202,541.035828 
	C610.393799,535.085693 609.086792,529.267151 607.966492,522.601562 
M772.666809,454.771973 
	C770.144531,452.792725 767.353943,451.276215 764.234863,450.576263 
	C761.181213,449.890991 758.410889,450.972656 756.822327,453.541748 
	C755.240784,456.099365 756.211975,458.717285 758.283447,460.788116 
	C760.049194,462.553314 761.947754,464.184998 763.728333,465.935913 
	C774.073181,476.108215 772.172180,492.251251 759.645447,499.496765 
	C755.188965,502.074432 750.376038,504.028687 745.853149,506.500488 
	C739.523682,509.959534 736.382507,515.629089 737.490112,521.048279 
	C738.681091,526.875488 744.341553,531.907776 751.026123,532.696838 
	C759.552002,533.703186 767.678650,532.546814 774.672241,527.076965 
	C792.924255,512.801819 800.648987,493.740997 800.757202,470.895050 
	C800.874512,446.124939 777.770569,423.261108 749.866821,431.472626 
	C736.458923,435.418335 725.180542,446.036621 726.229614,462.067291 
	C726.445129,465.361755 727.697021,467.668182 730.775452,468.378448 
	C733.958679,469.112885 735.667725,466.743988 736.780151,464.207123 
	C737.641174,462.243561 738.119995,460.110962 738.749023,458.047485 
	C740.717468,451.590332 744.056152,446.392609 750.504944,443.360748 
	C773.714172,432.448975 792.206848,455.498291 791.370300,471.860748 
	C791.239807,474.414459 790.657898,476.717346 787.794678,477.029022 
	C784.803223,477.354706 783.993347,475.015137 783.418640,472.591583 
	C781.800903,465.769073 778.643494,459.830627 772.666809,454.771973 
z"/>
<path fill="#000000" opacity="1.000000" stroke="none" 
	d="
M696.769348,328.245087 
	C663.839966,296.973694 627.035034,272.594727 583.847534,258.780365 
	C552.183533,248.652023 519.775024,244.746368 486.444489,246.826660 
	C436.755005,249.927963 391.903381,266.078674 351.236023,294.409882 
	C345.639282,298.308868 340.287476,302.569336 334.933563,306.803192 
	C331.798096,309.282654 328.517822,310.599640 324.395752,310.414978 
	C317.911072,310.124451 311.404694,310.300537 304.907532,310.313263 
	C301.830505,310.319275 298.639130,310.285400 297.192841,306.985565 
	C295.656006,303.479248 297.908844,300.906311 300.128052,298.600128 
	C311.040466,287.259979 323.489868,277.834991 336.522125,269.068054 
	C364.978455,249.925247 395.715454,235.800293 428.958893,227.501450 
	C446.338226,223.162933 464.012268,220.334061 482.034790,219.389496 
	C492.520752,218.839905 502.996246,218.418579 513.441406,218.755554 
	C548.116150,219.874176 581.677124,226.733856 614.003174,239.447235 
	C649.593567,253.444473 681.316528,273.568970 709.453308,299.439056 
	C716.204773,305.646698 722.979675,311.827057 728.485535,319.190918 
	C733.847473,326.362213 733.069397,333.768188 726.725586,339.158539 
	C720.654663,344.316986 714.984131,344.538025 708.728821,339.371857 
	C704.629639,335.986359 700.924561,332.123688 696.769348,328.245087 
z"/>
</svg>