<svg version="1.1" id="Layer_1" xmlns="http://www.w3.org/2000/svg" xmlns:xlink="http://www.w3.org/1999/xlink" x="0px" y="0px"
	 width="100%" viewBox="0 0 1024 1024" enable-background="new 0 0 1024 1024" xml:space="preserve">
<path fill="#000000" opacity="1.000000" stroke="none" 
	d="
M498.980164,490.963837 
	C503.241211,502.158630 507.825989,513.243042 511.690460,524.573059 
	C518.133850,543.464050 521.796753,562.871460 520.284668,582.952881 
	C519.266663,596.471436 515.765991,609.484985 511.376465,622.246826 
	C505.988556,637.911194 498.863831,652.773865 489.456543,666.430603 
	C474.749878,687.780701 455.136383,703.402344 432.105743,715.005920 
	C411.235138,725.521301 389.159027,733.137939 367.645386,742.105530 
	C336.437531,755.114075 307.113220,771.407227 280.038940,791.732056 
	C258.707977,807.745361 236.123505,821.948975 214.080948,836.934509 
	C213.292084,837.470825 212.467697,838.156189 211.329910,837.734131 
	C210.633301,836.747803 211.446060,836.160950 212.036667,835.708191 
	C232.888336,819.719666 250.480591,800.257629 268.693024,781.555969 
	C295.408997,754.122131 325.847992,732.355469 360.141144,715.467896 
	C382.385742,704.513611 405.010529,694.129150 425.569794,680.022766 
	C449.850159,663.363159 467.124542,641.525452 473.022095,612.231567 
	C478.128723,586.866394 472.415955,562.856506 460.366028,540.423767 
	C445.356720,512.481750 423.573090,491.630219 393.708435,479.959015 
	C380.017822,474.608643 365.795593,474.277008 351.426025,476.496918 
	C348.259613,476.986084 347.859314,478.754974 348.137726,481.825623 
	C349.780762,499.947540 338.513153,513.593689 321.652557,514.293091 
	C308.986847,514.818481 297.487457,507.411041 293.384796,496.084259 
	C289.175812,484.464050 292.878448,471.359070 302.537537,463.688873 
	C311.998840,456.175812 327.075745,455.429230 337.022217,463.146790 
	C342.147827,467.123718 346.375824,467.554749 352.390472,465.868591 
	C363.298706,462.810638 374.587982,461.693756 385.968719,463.313141 
	C386.822418,463.434570 387.634491,463.346832 388.144165,462.501770 
	C388.505554,461.574005 388.028625,460.910095 387.429108,460.302551 
	C367.168945,439.772949 344.348480,423.594086 315.310425,418.079651 
	C294.755463,414.176178 275.547699,416.759613 258.439819,430.714294 
	C257.647430,427.431610 259.570679,425.629242 260.914917,423.832245 
	C269.690552,412.100983 282.197266,407.708130 296.128326,406.728210 
	C328.182190,404.473572 355.921295,415.409119 380.807220,434.898468 
	C399.337036,449.410065 415.476837,466.577850 433.285431,481.887238 
	C434.641754,483.053223 436.034241,484.177094 438.610626,486.318573 
	C434.402802,474.918457 431.534180,464.744873 429.367401,454.348267 
	C425.785522,437.161865 426.395081,420.287506 432.139099,403.669861 
	C433.213867,400.560425 433.511414,397.927856 431.561951,394.802338 
	C412.967499,364.990906 387.450073,346.319000 351.394623,344.275543 
	C350.768799,344.240051 350.154694,343.998383 349.361633,343.812225 
	C354.605560,340.335175 375.471985,344.848755 390.894684,349.918671 
	C404.588440,354.420258 416.042084,362.560120 426.947784,371.725922 
	C419.202606,357.377411 407.520355,347.111115 393.387634,339.561127 
	C376.259094,330.410706 357.863190,326.694763 338.469574,327.320435 
	C293.099182,328.784149 255.795059,361.729492 247.075104,398.942749 
	C244.214676,411.149994 245.504562,423.077118 252.196838,434.042175 
	C253.061813,435.459381 253.975952,436.879944 255.072678,438.116943 
	C262.615662,446.624878 272.224030,445.627991 277.430939,435.844635 
	C281.030121,440.010834 278.949860,447.307739 273.072723,451.131866 
	C264.464081,456.733246 252.474014,455.398712 245.058838,447.792206 
	C236.408508,438.918640 232.227478,428.002533 231.712677,415.790283 
	C230.378281,384.134827 245.230499,360.012817 268.556915,340.671509 
	C291.774078,321.420837 319.214752,312.372620 349.200684,313.932556 
	C390.958252,316.104858 424.152527,333.399475 443.434540,372.414520 
	C448.672150,383.012177 450.401520,394.561310 452.304810,406.044067 
	C453.598206,413.847107 454.276337,421.763275 457.023834,430.633514 
	C456.300415,413.965790 456.009277,398.603485 459.270386,383.431427 
	C463.715607,362.750641 473.008728,344.253601 484.615570,326.769318 
	C493.087708,314.006989 502.129425,301.598145 508.679321,287.639038 
	C513.312744,277.764252 517.063538,267.593323 517.640991,256.648682 
	C519.022095,230.472092 505.774475,210.556381 481.146576,201.360107 
	C464.127930,195.005188 446.713837,195.771194 429.504974,199.867828 
	C375.355865,212.758163 329.526154,240.317429 290.741547,279.918793 
	C262.270844,308.989044 239.315155,341.939728 222.315903,378.918427 
	C214.239563,396.487030 207.800781,414.693970 203.224915,433.524292 
	C202.744904,435.499542 202.855179,437.804535 200.089706,440.168304 
	C200.400314,434.572357 200.396133,429.926819 200.954712,425.349945 
	C204.605713,395.433929 213.950226,367.256561 228.001312,340.712158 
	C258.377991,283.326355 301.732239,238.603317 359.435730,208.397842 
	C382.500397,196.324417 406.506195,186.475342 432.450317,182.143906 
	C452.447449,178.805344 472.285919,178.301666 491.429474,186.054535 
	C526.964233,200.445587 543.953552,237.189636 532.730286,274.268585 
	C529.914185,283.572449 525.586731,292.140381 520.707275,300.866425 
	C534.096375,297.086639 554.940491,268.694275 556.239075,249.392471 
	C559.097961,206.900574 535.175598,184.560883 496.438141,174.380478 
	C505.284393,174.072281 513.623413,176.260483 522.543884,177.824890 
	C516.764893,174.288788 507.481079,172.579468 491.890381,172.125549 
	C481.660217,171.827713 471.458527,172.322983 461.108337,174.396759 
	C461.557953,172.429199 462.613312,172.172058 463.521484,171.896210 
	C495.359833,162.224991 527.691650,159.919983 560.089111,167.827393 
	C584.132019,173.695633 600.719299,188.759186 605.635437,213.697571 
	C609.619019,233.905319 602.593933,251.768433 590.149048,267.653168 
	C580.667603,279.755341 567.507385,287.172058 554.669312,294.874207 
	C539.932068,303.715759 525.296936,312.701477 512.336914,324.040680 
	C492.053650,341.787323 480.834015,364.692657 476.394379,390.888306 
	C471.725983,418.433472 477.899048,444.464386 489.153076,469.551117 
	C492.286285,476.535461 495.442871,483.509308 498.794556,490.741730 
	C499.000427,490.995483 498.980164,490.963837 498.980164,490.963837 
M453.167145,445.248138 
	C448.102631,430.961243 443.523468,416.465637 435.327240,402.321747 
	C430.619446,414.558228 431.509613,426.041290 432.936707,437.357971 
	C435.082062,454.370544 441.552795,470.083466 448.833801,485.483368 
	C456.235870,501.139313 465.319824,515.946106 472.083740,531.924744 
	C479.205078,548.747681 484.022247,566.055054 484.432343,584.478271 
	C484.598541,591.944946 484.600677,599.371338 483.647827,606.802856 
	C485.548126,599.386780 487.240051,592.041382 487.984497,584.367310 
	C490.089203,562.671387 488.403473,541.503113 481.003662,520.969299 
	C471.975433,495.916840 462.657074,470.968933 453.167145,445.248138 
M567.905029,224.597717 
	C567.489380,222.714111 567.984619,220.607910 565.716309,217.943451 
	C568.180664,226.127060 567.211731,233.405197 567.339661,242.045959 
	C569.011658,235.591904 568.851074,230.518387 567.905029,224.597717 
z"/>
<path fill="#000000" opacity="1.000000" stroke="none" 
	d="
M499.013000,491.009338 
	C495.688904,479.698822 491.903198,468.519073 489.246765,456.980438 
	C484.675873,437.125977 485.505127,417.275452 492.194183,398.424225 
	C501.571747,371.996033 521.212036,356.403992 549.018005,351.678802 
	C592.024292,344.370514 630.412659,375.909454 641.287903,414.929230 
	C648.647827,441.336548 643.591003,465.973053 631.659302,489.720001 
	C620.995605,510.943329 604.917542,528.217773 589.695923,546.093445 
	C581.392700,555.844360 572.731812,565.303223 564.562927,576.623291 
	C576.376099,569.491150 587.209839,562.856384 598.134216,556.374390 
	C621.476868,542.523987 645.538879,529.856812 667.553284,513.831604 
	C693.390503,495.023651 716.073059,473.176025 732.683228,445.619446 
	C745.796082,423.865021 755.307129,400.539917 758.301392,375.242279 
	C763.788391,328.884521 751.401794,287.616608 721.028503,251.874252 
	C686.667969,211.440063 641.144348,190.288040 591.384705,176.348022 
	C589.553345,175.834961 587.733459,175.280640 584.628235,174.370316 
	C589.988953,172.853699 593.803345,174.395828 597.545959,175.038742 
	C633.315186,181.183380 666.589111,194.094315 696.707886,214.216812 
	C736.041870,240.496063 763.250732,276.116455 773.553467,322.818390 
	C779.477539,349.672089 777.385925,376.724457 769.895203,403.314056 
	C760.387085,437.064636 742.584961,465.930634 719.253357,491.783295 
	C694.224915,519.516113 663.527527,539.616272 631.528320,558.048706 
	C611.608276,569.523254 591.511719,580.732605 573.809692,595.600525 
	C562.651855,604.972046 553.116211,615.859985 544.574890,627.631470 
	C543.735535,628.788208 542.701172,629.988281 543.011963,631.660034 
	C544.257874,632.291931 545.333252,631.681702 546.328430,631.170349 
	C556.183289,626.106567 566.854492,623.374695 577.404602,620.330139 
	C587.851135,617.315369 597.802979,613.164368 607.465515,608.205444 
	C637.826050,592.624023 666.203247,595.590027 692.429688,617.580505 
	C697.253723,621.625427 702.350952,625.422241 705.864441,630.557922 
	C705.684448,632.788818 704.155457,633.685181 702.893372,634.684753 
	C688.023254,646.462402 671.878052,655.319702 652.487610,656.926392 
	C643.966980,657.632446 635.704163,656.298950 628.157166,652.681946 
	C610.398804,644.170776 591.940552,639.597229 572.188416,640.687073 
	C571.813110,640.707764 571.411560,640.250977 569.962952,639.380188 
	C591.741943,634.589111 612.883240,631.833801 633.961426,627.835510 
	C630.251648,626.734985 620.461243,626.746399 614.528870,627.761169 
	C603.385254,629.667480 592.247925,631.613770 581.088867,633.425659 
	C566.681763,635.765076 553.447754,640.871338 542.072815,650.149231 
	C530.329773,659.727295 523.958435,672.324097 523.366150,687.376404 
	C521.642395,731.182678 542.809998,761.671570 579.561218,783.043884 
	C598.555176,794.089600 619.459473,799.534363 640.497864,804.712280 
	C661.193298,809.805786 681.931458,814.773560 701.455566,823.628174 
	C708.892273,827.000916 716.010742,830.969543 723.120544,835.000122 
	C743.449707,846.524902 765.366882,853.653015 788.342102,857.675171 
	C795.890137,858.996582 803.477356,859.836731 811.133972,860.115723 
	C812.572266,860.168091 814.150085,859.914551 816.106750,862.018311 
	C810.508545,862.684448 805.442322,862.900696 800.593262,863.041931 
	C778.299927,863.691101 755.914978,864.575623 733.963135,859.342651 
	C721.649292,856.407227 709.776550,852.056946 698.114563,847.074829 
	C671.216858,835.584167 642.818054,828.909729 614.700867,821.305115 
	C590.378906,814.726990 566.419067,806.992310 545.013000,793.228943 
	C524.308777,779.916748 508.582886,762.632690 503.302551,737.663208 
	C499.944977,721.785889 502.578735,706.209900 506.014191,690.715515 
	C509.293304,675.926453 514.734802,661.749939 517.824646,646.681580 
	C516.337036,649.588501 514.795227,652.469177 513.370300,655.406494 
	C501.972107,678.902222 488.631287,701.083252 470.410919,720.066833 
	C456.872620,734.172180 441.666229,746.354370 426.654083,758.780762 
	C417.305267,766.519348 407.296051,773.446594 399.232025,782.744751 
	C387.690735,796.052551 382.284637,810.547668 387.137726,828.277527 
	C390.058228,838.946899 390.328186,850.386475 397.009766,859.685913 
	C396.451324,860.782043 395.721802,860.528015 395.223022,860.197266 
	C381.417450,851.042358 369.624878,839.998596 362.380310,824.771118 
	C353.678894,806.481506 357.917328,790.188843 370.141510,775.151733 
	C377.155334,766.523987 385.886047,759.802307 394.829865,753.415100 
	C407.567474,744.318542 420.465393,735.436523 433.480255,726.740356 
	C456.266174,711.515442 476.272156,693.282654 492.684998,671.366577 
	C501.617310,659.439270 507.877777,645.838623 512.439697,631.693787 
	C521.119202,604.781982 533.525208,580.044250 551.277405,557.860107 
	C562.399963,543.960693 572.854980,529.450867 580.844788,513.399841 
	C588.322998,498.376465 594.121521,482.742188 594.455627,465.786224 
	C594.697083,453.532013 592.405762,441.600342 585.833191,430.854980 
	C584.561646,428.776215 582.787231,426.900604 582.436951,424.245209 
	C590.932495,428.065857 600.024109,451.436523 600.457947,469.096619 
	C600.876465,486.128937 596.542908,502.002716 589.877197,517.436157 
	C592.577271,514.949890 595.639954,512.746582 597.931213,509.918304 
	C611.274780,493.447113 622.000000,475.669678 626.233948,454.443481 
	C633.778076,416.621765 611.145386,378.638580 574.830322,368.728638 
	C547.908447,361.381989 519.275024,375.233734 507.226929,401.068817 
	C497.058411,422.873535 496.595367,445.270264 501.573456,468.353058 
	C505.247986,485.391663 512.153442,501.287842 518.053101,517.528870 
	C523.987671,533.865723 525.140625,550.592896 524.021667,567.674072 
	C523.956970,568.661743 523.664124,569.638489 523.433838,570.609985 
	C523.286926,571.229675 523.059692,571.830322 522.054321,572.610962 
	C522.241455,543.304688 510.958984,517.335938 499.241089,491.190491 
	C498.980164,490.963837 499.000427,490.995483 499.013000,491.009338 
z"/>
<path fill="#000000" opacity="1.000000" stroke="none" 
	d="
M242.099243,566.619019 
	C252.915970,571.724792 260.095428,580.307617 266.616699,589.388123 
	C282.985260,612.180115 291.175354,637.733887 292.443573,665.775513 
	C293.646271,692.368408 290.541351,718.557922 286.559387,744.721924 
	C286.409485,745.706909 286.376892,746.710022 286.298645,747.705444 
	C285.737488,754.842651 283.884979,760.983215 277.598297,765.756226 
	C271.407043,770.456909 266.229462,776.491028 260.592072,781.924561 
	C259.675293,782.808105 258.974091,784.064453 256.974243,784.134827 
	C260.443817,749.708191 262.151001,715.471741 253.977936,681.523315 
	C250.540970,711.732910 249.989655,742.085205 249.764328,772.484863 
	C247.606903,765.729187 247.456772,758.779236 247.003922,751.919128 
	C245.107147,723.185425 243.577911,694.437195 243.606812,665.616516 
	C243.623840,648.638062 242.239594,631.731079 238.704605,615.064636 
	C237.799698,610.798218 236.566071,606.646667 233.891998,603.119995 
	C231.207001,599.579041 228.905121,599.745117 226.581543,603.530396 
	C225.145462,605.869934 224.756485,608.559021 224.469482,611.182007 
	C222.667557,627.649719 223.939789,644.048523 225.686676,660.441162 
	C227.025635,673.005798 228.394943,685.557373 231.316895,697.882324 
	C231.490372,698.614075 231.740417,699.519287 230.262787,700.469971 
	C229.015503,697.407227 227.880524,694.399719 226.581345,691.464844 
	C215.571014,666.592407 209.499405,640.477905 206.538986,613.516785 
	C205.368622,602.857910 204.383545,592.292480 208.279434,582.002319 
	C213.798538,567.424622 226.926285,561.409119 242.099243,566.619019 
z"/>
<path fill="#000000" opacity="1.000000" stroke="none" 
	d="
M646.377563,303.354431 
	C659.996277,305.461243 672.075745,310.235962 683.328613,317.067780 
	C683.150513,317.524933 682.972412,317.982086 682.794312,318.439240 
	C678.541443,316.769501 674.368713,314.845764 670.022034,313.473114 
	C648.862854,306.791229 627.567871,308.278595 606.431213,313.325073 
	C569.825439,322.064941 536.881592,338.258789 509.094299,363.870087 
	C493.303009,378.424835 485.577393,397.387726 484.719177,418.572693 
	C484.307068,428.745758 484.714569,439.199127 486.973267,449.348755 
	C487.176971,450.264008 487.000305,451.263885 487.000305,452.718445 
	C484.278900,450.720184 484.536469,447.854218 483.960724,445.576141 
	C479.636139,428.463867 477.862396,411.173126 481.703583,393.714874 
	C484.699585,380.097900 491.265076,368.125641 500.123535,357.553497 
	C514.048584,340.934540 529.359070,325.685486 545.992615,311.694153 
	C568.105774,293.093628 593.116821,281.577332 621.782166,277.426086 
	C651.110413,273.178833 678.838684,276.961975 704.528748,292.147034 
	C725.083557,304.296692 738.239868,322.024139 742.828125,345.652130 
	C744.875488,356.195374 743.959717,366.474579 739.041382,376.288574 
	C733.504395,387.337372 718.640320,395.760895 707.295227,393.974609 
	C691.933655,391.556000 680.690674,381.810059 679.406555,368.261536 
	C677.547607,348.648956 688.212952,334.905548 710.975586,332.785583 
	C712.735291,332.621674 714.621155,333.146027 716.592957,331.791290 
	C715.540833,326.149628 712.250427,321.800201 708.770691,317.627167 
	C697.461487,304.065002 682.198486,297.357361 665.549805,293.376038 
	C642.124207,287.774109 619.054382,289.707153 596.201965,296.944489 
	C584.693420,300.589203 573.815430,305.461212 563.420227,311.518097 
	C561.859192,312.427673 560.261475,313.271576 559.380981,315.343658 
	C587.304504,304.121948 615.803833,297.567780 646.377563,303.354431 
z"/>
<path fill="#000000" opacity="1.000000" stroke="none" 
	d="
M685.219910,570.187134 
	C698.967102,563.223022 710.264771,553.762451 720.192749,542.560974 
	C727.263977,534.582703 734.140259,526.413208 741.529602,518.739258 
	C756.408447,503.287445 774.995850,495.312897 796.176453,493.864166 
	C814.417786,492.616455 832.368103,495.029663 849.904419,500.410309 
	C853.099060,501.390472 854.185913,502.747009 853.440491,506.133331 
	C849.289551,524.992310 842.234924,542.412048 828.578247,556.522827 
	C818.193298,567.253052 805.322571,572.907532 790.523682,574.328064 
	C783.378174,575.013977 776.244507,574.924072 769.086182,574.364624 
	C747.337708,572.665039 726.401489,577.329407 705.541809,582.611694 
	C700.155945,583.975586 694.681396,584.989319 689.126160,585.739075 
	C691.962158,582.897400 695.736084,582.156006 699.210815,580.978210 
	C726.102478,571.862732 750.397766,557.753113 773.999451,542.309753 
	C779.528625,538.691833 785.749939,536.943787 791.830933,534.720032 
	C781.761963,536.885498 772.139465,540.355286 762.903320,544.912659 
	C746.031067,553.237976 730.173706,563.499512 712.794128,570.880493 
	C692.971680,579.298889 672.648926,585.097900 650.852661,584.137512 
	C648.935974,584.053101 646.858948,584.620789 644.289429,582.271240 
	C659.087769,580.806213 672.384338,576.819824 685.219910,570.187134 
z"/>
<path fill="#000000" opacity="1.000000" stroke="none" 
	d="
M483.235291,794.627686 
	C473.948822,774.436096 473.880676,754.683838 484.058716,735.192810 
	C488.066071,727.518616 492.473114,720.052490 496.742096,712.516479 
	C497.368378,711.410889 497.781738,709.995728 499.932953,709.679016 
	C499.024597,713.465149 497.888397,716.996582 497.355225,720.616699 
	C493.564880,746.352661 502.846191,767.303772 521.335938,784.677429 
	C536.288330,798.727295 554.318848,807.552246 573.221313,814.954041 
	C599.825623,825.371643 627.661255,831.456604 655.161072,838.734680 
	C673.700989,843.641541 691.805237,849.807800 709.498962,857.202759 
	C713.616272,858.923523 717.820435,860.436340 722.656982,862.304565 
	C720.117981,864.031372 717.961914,863.362732 716.017700,863.163696 
	C690.179871,860.518494 664.197021,860.211304 638.316528,858.276855 
	C606.081726,855.867371 573.996460,852.634033 543.373291,841.234558 
	C531.939087,836.978149 520.981384,831.854431 510.894928,824.862488 
	C499.453796,816.931458 490.358765,806.960632 483.235291,794.627686 
z"/>
<path fill="#000000" opacity="1.000000" stroke="none" 
	d="
M814.808533,364.356079 
	C819.103149,379.882721 821.666016,395.240845 821.335449,411.014709 
	C821.194946,417.720825 820.095703,424.260681 818.307800,430.687958 
	C814.294373,445.115387 804.496338,454.745026 791.836792,461.743744 
	C778.095886,469.340302 763.195557,474.290497 748.648315,480.032318 
	C748.422180,480.121613 748.055969,479.855957 747.347290,479.620361 
	C751.306213,474.581238 757.406433,472.574707 761.404968,467.791901 
	C752.464355,473.235321 743.523804,478.678741 733.672546,484.676636 
	C734.454224,481.265717 736.376831,480.459747 737.792725,479.224854 
	C749.211182,469.266327 760.956482,459.633026 770.208435,447.471893 
	C782.869263,430.830017 790.462341,412.041656 793.682007,391.441742 
	C798.006836,363.770538 790.524048,337.993530 780.842957,312.611786 
	C776.921204,302.329651 772.006348,292.497772 766.463196,282.984161 
	C765.922607,282.056305 765.614319,280.993073 765.745728,279.719147 
	C788.940857,303.816071 804.983032,332.040741 814.808533,364.356079 
M773.107483,457.642609 
	C771.326233,459.227142 769.544922,460.811676 767.763672,462.396210 
	C768.069763,462.690247 768.375854,462.984283 768.681885,463.278320 
	C772.033875,460.552368 775.472290,457.918976 777.607422,453.797455 
	C776.265259,454.919556 774.923096,456.041687 773.107483,457.642609 
z"/>
<path fill="#000000" opacity="1.000000" stroke="none" 
	d="
M298.633179,631.317200 
	C292.915680,608.036011 280.778961,589.197510 263.500885,573.317444 
	C255.917816,566.347900 248.580170,558.954224 243.455261,549.833557 
	C238.510147,541.033081 239.970596,530.250977 246.882187,522.440186 
	C253.097046,515.416748 263.645599,512.895630 272.483917,516.321228 
	C281.508728,519.819092 287.531616,528.900574 287.337982,538.581299 
	C287.249725,542.991638 285.549103,546.649292 282.487518,549.724121 
	C281.313782,550.902893 279.940308,551.895386 278.845734,553.138306 
	C274.585815,557.975830 275.118622,562.226379 280.658966,565.464355 
	C284.386017,567.642639 288.347534,569.450928 292.303070,571.201355 
	C306.319489,577.403931 312.598328,589.059204 314.233185,603.419922 
	C317.613007,633.108154 313.263763,662.102844 305.406281,690.707458 
	C303.831818,696.439270 302.474945,702.230896 300.199677,707.962524 
	C303.378418,682.419678 304.560883,656.980652 298.633179,631.317200 
z"/>
<path fill="#000000" opacity="1.000000" stroke="none" 
	d="
M421.716187,809.894165 
	C418.328552,789.207214 427.549347,773.693359 440.475433,759.577148 
	C453.520142,745.331421 468.198486,732.651733 480.662323,717.860168 
	C486.453278,710.987671 491.769226,703.727966 496.542633,696.085693 
	C497.551483,694.470581 498.151520,692.369324 501.636902,691.387451 
	C498.974121,696.805847 496.818207,701.494873 494.406403,706.048462 
	C483.729126,726.207458 470.175995,744.712463 460.327942,765.359558 
	C457.457245,771.378235 454.622040,777.392822 452.570984,783.740906 
	C449.295410,793.879089 449.354492,804.002380 453.266083,814.047119 
	C452.762756,809.676453 451.856140,805.304871 451.866425,800.935425 
	C451.877380,796.312012 452.362915,791.601135 453.376038,787.093689 
	C454.377838,782.636597 456.611511,778.561035 459.896942,775.087708 
	C459.428864,781.210510 458.259399,787.117676 458.192932,793.209167 
	C458.034943,807.689697 459.636688,822.047363 465.889771,834.979431 
	C470.563293,844.644836 479.470062,851.224915 489.596710,855.522766 
	C490.917694,856.083374 492.252350,856.611694 493.496735,857.634460 
	C487.069214,858.838440 480.813110,857.461548 474.642670,856.230530 
	C455.843170,852.479980 439.952606,843.938660 428.768311,827.763611 
	C425.083801,822.434998 422.865723,816.633179 421.716187,809.894165 
z"/>
<path fill="#000000" opacity="1.000000" stroke="none" 
	d="
M720.809814,701.824585 
	C727.731934,690.108582 727.838196,677.745422 726.100952,665.192444 
	C724.680969,654.931824 723.699524,644.821289 726.759521,634.580078 
	C732.828308,614.269470 757.935913,599.739319 776.822021,605.971497 
	C777.570679,606.218567 778.259338,606.647339 779.644592,607.312500 
	C774.488037,611.003967 776.714783,614.320557 779.367126,617.857849 
	C781.621216,620.863953 781.826233,625.112000 785.371155,627.153748 
	C784.844604,628.092590 784.714417,628.686768 784.352356,628.917786 
	C771.739136,636.968384 766.268555,649.759888 761.498840,663.071777 
	C750.665588,693.306152 729.035522,713.109985 700.367920,726.051392 
	C699.663574,726.369385 698.844482,726.433167 697.718750,726.170044 
	C706.557556,719.218018 715.091736,712.079163 720.809814,701.824585 
z"/>
<path fill="#000000" opacity="1.000000" stroke="none" 
	d="
M249.228241,837.288940 
	C268.862122,805.097168 298.238129,784.853516 330.338989,767.738342 
	C353.462555,755.409485 377.722443,745.804199 402.387482,737.127686 
	C404.568573,736.360474 406.719269,735.506592 408.903107,734.747742 
	C409.130096,734.668884 409.487579,734.965637 410.355957,735.323975 
	C407.695526,738.002502 404.374420,739.113037 401.405457,740.587402 
	C378.060394,752.179871 356.744019,766.999329 335.431213,781.827881 
	C314.805939,796.178162 293.956085,810.221924 274.809052,826.581360 
	C258.773773,840.281982 244.320755,855.333313 233.792374,873.809692 
	C233.422012,874.459595 233.206024,875.443420 231.292114,875.218140 
	C236.485779,862.166626 240.755386,848.978271 249.228241,837.288940 
z"/>
<path fill="#000000" opacity="1.000000" stroke="none" 
	d="
M435.726379,229.077118 
	C441.358795,214.658508 459.523956,208.397018 474.279205,216.266891 
	C487.800018,223.478348 492.071075,240.755081 483.888245,254.791550 
	C478.539490,263.966553 465.890900,268.988403 454.744263,266.362457 
	C443.149689,263.630981 434.242523,253.630936 433.665833,242.636124 
	C433.428925,238.119965 433.589111,233.641998 435.726379,229.077118 
z"/>
<path fill="#000000" opacity="1.000000" stroke="none" 
	d="
M550.196899,397.422363 
	C562.552246,403.273621 568.557312,414.581116 566.107239,426.847626 
	C563.824829,438.274841 553.434875,446.948669 541.570129,447.331848 
	C529.029663,447.736847 518.347900,440.338745 515.306580,428.637695 
	C512.872131,419.271545 513.912415,410.289490 521.171631,403.211334 
	C529.331909,395.254578 539.153748,393.837555 550.196899,397.422363 
z"/>
<path fill="#000000" opacity="1.000000" stroke="none" 
	d="
M333.336823,343.552887 
	C348.091553,356.464294 340.963440,379.346130 325.069305,383.471863 
	C315.791077,385.880249 305.351044,383.393280 300.090576,376.582520 
	C293.970612,368.658905 293.331573,357.013916 298.572968,348.925293 
	C303.571442,341.211487 314.239563,337.018005 323.558258,339.139374 
	C326.984314,339.919250 330.308868,340.968109 333.336823,343.552887 
z"/>
<path fill="#000000" opacity="1.000000" stroke="none" 
	d="
M371.575867,588.004883 
	C358.674957,591.799438 346.695374,586.519653 343.422791,574.936157 
	C340.048859,562.993713 344.464539,550.795471 356.646851,546.261475 
	C367.895447,542.075073 380.551208,547.841919 384.859253,559.053406 
	C389.524506,571.194519 384.512146,582.376343 371.575867,588.004883 
z"/>
<path fill="#000000" opacity="1.000000" stroke="none" 
	d="
M378.939819,239.716385 
	C391.968811,241.185394 400.962616,250.940720 400.129852,262.227173 
	C399.280060,273.743774 390.126038,282.299713 378.631561,282.320801 
	C367.725586,282.340790 358.903320,274.631439 357.722229,264.049133 
	C356.364777,251.886246 362.556122,242.906219 374.079376,240.380875 
	C375.532227,240.062454 377.026154,239.931610 378.939819,239.716385 
z"/>
<path fill="#000000" opacity="1.000000" stroke="none" 
	d="
M663.921936,331.539917 
	C667.756653,347.526917 655.557922,358.622620 641.796265,357.494293 
	C631.508484,356.650787 623.306213,348.183899 623.134827,337.571350 
	C622.956421,326.520996 630.793518,317.515869 641.303406,316.695038 
	C651.992737,315.860168 659.626892,320.768494 663.921936,331.539917 
z"/>
<path fill="#000000" opacity="1.000000" stroke="none" 
	d="
M682.702026,238.339783 
	C667.541565,237.303818 653.415344,239.010345 640.045166,245.862381 
	C630.543823,250.731705 623.177856,257.586945 617.714783,266.650360 
	C617.072083,267.716583 617.017029,269.259857 614.906311,269.844757 
	C614.330688,261.930176 616.098877,254.626648 618.834412,247.548645 
	C625.754822,229.642990 640.282959,219.588654 657.889648,220.713135 
	C669.556396,221.458221 679.680115,226.326706 688.777161,233.473740 
	C691.341980,235.488754 693.847412,237.579407 696.006836,240.364563 
	C691.727661,239.693161 687.448486,239.021759 682.702026,238.339783 
z"/>
<path fill="#000000" opacity="1.000000" stroke="none" 
	d="
M239.519180,482.249542 
	C234.753540,489.699554 228.101501,493.008545 219.814896,492.172424 
	C212.643127,491.448792 207.482742,487.409637 204.850327,480.551300 
	C201.709854,472.369263 204.593079,462.052368 211.302231,457.108795 
	C217.948959,452.211243 227.546631,452.404846 234.127518,457.569183 
	C241.220963,463.135773 243.517822,473.160950 239.519180,482.249542 
z"/>
<path fill="#000000" opacity="1.000000" stroke="none" 
	d="
M352.486908,289.104736 
	C347.339050,296.954559 338.631775,300.798553 330.400696,299.132690 
	C323.564972,297.749176 317.914703,292.096008 316.735229,285.460114 
	C315.209595,276.876648 318.638458,268.117310 324.971375,264.420258 
	C332.399292,260.083923 341.125122,260.736115 347.324738,266.091003 
	C353.850311,271.727448 355.835175,280.162659 352.486908,289.104736 
z"/>
<path fill="#000000" opacity="1.000000" stroke="none" 
	d="
M387.699768,622.871460 
	C385.945923,614.580566 387.998566,607.763855 394.484711,603.000732 
	C401.345184,597.962769 408.957550,598.364868 416.134125,602.412476 
	C423.008453,606.289551 424.922852,612.865723 424.373108,620.354248 
	C423.803131,628.118958 416.875244,634.879761 408.170471,636.211426 
	C399.035706,637.609009 391.534637,632.851318 387.699768,622.871460 
z"/>
<path fill="#000000" opacity="1.000000" stroke="none" 
	d="
M423.127045,311.764679 
	C415.061279,298.693420 420.580658,284.830872 434.521606,282.274689 
	C443.477264,280.632568 452.512329,286.803375 454.224945,295.731689 
	C456.171570,305.879944 450.442383,315.442200 441.150848,317.148590 
	C434.467255,318.376038 428.201416,317.548584 423.127045,311.764679 
z"/>
<path fill="#000000" opacity="1.000000" stroke="none" 
	d="
M360.021240,380.470398 
	C364.675507,371.482361 373.655670,368.279633 381.918427,372.351013 
	C386.527405,374.622009 387.151703,377.035553 384.247772,381.364563 
	C383.878174,381.915527 383.446869,382.432404 383.136658,383.014343 
	C382.499756,384.209229 381.962402,385.462250 382.864288,386.755188 
	C383.391235,387.510651 384.234009,387.788177 385.065094,387.458221 
	C386.679016,386.817474 386.476349,385.431000 386.282776,384.073151 
	C386.162842,383.231781 386.206360,382.411346 386.982544,381.836517 
	C390.431976,383.545807 391.349670,388.717590 388.986542,393.124268 
	C384.632965,401.242554 376.249542,404.709747 368.471924,401.608551 
	C360.500458,398.430084 357.081512,390.180267 360.021240,380.470398 
z"/>
<path fill="#000000" opacity="1.000000" stroke="none" 
	d="
M547.128906,481.898193 
	C548.688965,471.538879 553.487610,466.771332 562.034607,466.664978 
	C570.635620,466.557983 576.524597,471.601990 577.321228,479.758331 
	C578.130310,488.042603 572.984436,494.278320 563.939270,495.974548 
	C556.557190,497.358856 549.663940,492.617340 547.631714,484.741058 
	C547.424683,483.938599 547.311584,483.111847 547.128906,481.898193 
z"/>
<path fill="#000000" opacity="1.000000" stroke="none" 
	d="
M657.712402,465.675659 
	C664.849976,460.847504 671.840942,460.936157 676.715271,465.656128 
	C681.466919,470.257324 682.827637,478.363373 679.721436,483.565125 
	C676.316406,489.267181 668.628174,492.216003 662.371887,490.219604 
	C652.686707,487.128998 650.195679,474.874786 657.712402,465.675659 
z"/>
<path fill="#000000" opacity="1.000000" stroke="none" 
	d="
M711.171509,433.792114 
	C720.732910,445.163788 714.164490,456.232697 703.267334,458.240692 
	C696.988098,459.397797 691.917908,456.768616 689.083496,451.389221 
	C686.277954,446.064575 687.344666,438.608490 691.539429,434.222198 
	C695.435242,430.148499 702.569824,428.793365 707.657837,431.261780 
	C708.833313,431.832092 709.840454,432.749390 711.171509,433.792114 
z"/>
<path fill="#000000" opacity="1.000000" stroke="none" 
	d="
M683.392578,417.076965 
	C680.853455,420.784210 677.906677,423.409668 673.754150,424.177643 
	C667.709717,425.295471 661.721436,421.651978 660.076965,416.031525 
	C658.117981,409.336060 661.105835,401.981171 666.768188,399.560516 
	C672.842468,396.963745 680.097046,399.341309 683.118652,404.968292 
	C685.177063,408.801605 686.061768,412.716095 683.392578,417.076965 
z"/>
<path fill="#000000" opacity="1.000000" stroke="none" 
	d="
M337.434448,817.910278 
	C334.849152,823.563721 330.540558,826.045166 324.902588,825.758667 
	C319.831177,825.501099 316.018524,822.722839 314.223175,817.979065 
	C312.422119,813.220093 313.640320,808.785767 317.109100,805.057068 
	C320.748138,801.145386 326.735168,800.402283 331.806274,803.158752 
	C337.324768,806.158325 339.100891,810.597717 337.434448,817.910278 
z"/>
<path fill="#000000" opacity="1.000000" stroke="none" 
	d="
M400.621246,554.862122 
	C403.644592,547.000610 409.048920,544.376526 416.431458,546.831299 
	C422.095367,548.714722 425.645111,555.511841 423.994751,561.313599 
	C422.059631,568.116455 415.866882,571.758850 408.896149,570.194214 
	C403.073212,568.887207 399.499420,562.484009 400.621246,554.862122 
z"/>
<path fill="#000000" opacity="1.000000" stroke="none" 
	d="
M377.696289,527.950562 
	C367.781952,526.821472 363.358582,520.290405 365.920380,511.214233 
	C367.610504,505.226288 374.113556,502.193115 380.821167,504.264191 
	C386.947968,506.155884 390.608459,513.124146 388.433197,518.868103 
	C386.603577,523.699280 383.344971,526.951599 377.696289,527.950562 
z"/>
<path fill="#000000" opacity="1.000000" stroke="none" 
	d="
M399.860107,221.233521 
	C403.345734,214.674667 408.674133,212.580917 414.864929,215.003448 
	C419.640656,216.872253 422.764099,223.424606 421.368469,228.646454 
	C419.749939,234.702332 414.461365,238.085831 408.078125,237.149200 
	C401.748413,236.220428 398.731415,230.587006 399.860107,221.233521 
z"/>
<path fill="#000000" opacity="1.000000" stroke="none" 
	d="
M650.541748,368.806885 
	C654.651489,368.486725 658.260925,368.353058 661.037903,371.571869 
	C664.738708,375.861420 664.707886,382.180969 660.833740,385.992889 
	C656.720032,390.040497 650.217957,390.389984 646.417664,386.767700 
	C642.558899,383.089691 642.515320,375.456787 646.465393,371.355072 
	C647.465088,370.317017 648.894409,369.692780 650.541748,368.806885 
z"/>
<path fill="#000000" opacity="1.000000" stroke="none" 
	d="
M554.949341,518.323242 
	C555.229675,521.707458 554.248230,524.334473 552.194214,526.428162 
	C549.059204,529.623840 545.372375,531.182495 540.942810,529.184204 
	C536.688843,527.265076 534.846313,522.800293 535.755005,516.865234 
	C536.403381,512.630737 539.273254,510.516296 543.137024,509.850586 
	C547.852173,509.038147 551.650269,510.704041 553.944946,515.096008 
	C554.398987,515.965149 554.569458,516.982361 554.949341,518.323242 
z"/>
<path fill="#000000" opacity="1.000000" stroke="none" 
	d="
M411.452576,776.114990 
	C398.411163,791.083557 391.402405,808.268555 389.664825,828.803345 
	C386.381714,823.655884 386.224915,818.776489 386.329163,813.961487 
	C386.586670,802.063538 393.102203,793.033752 400.412781,784.478455 
	C403.320892,781.075195 406.473389,777.868225 409.670044,774.730225 
	C410.908752,773.514160 412.457031,772.940063 411.452576,776.114990 
z"/>
<path fill="#000000" opacity="1.000000" stroke="none" 
	d="
M618.285522,207.282242 
	C617.746765,200.149872 620.394836,196.381516 625.576477,196.344040 
	C631.644836,196.300171 635.193481,199.403824 635.058716,204.718521 
	C634.949829,209.012772 632.237488,211.409790 628.532715,212.540771 
	C623.859802,213.967316 620.459473,212.046524 618.285522,207.282242 
M629.848938,208.393265 
	C632.389648,205.400894 632.797668,202.515976 629.481873,199.754730 
	C627.361572,197.989075 625.180237,197.884750 623.215332,199.781967 
	C620.877625,202.039154 620.631348,204.804276 622.377441,207.497925 
	C624.118164,210.183136 626.559631,210.530411 629.848938,208.393265 
z"/>
<path fill="#000000" opacity="1.000000" stroke="none" 
	d="
M709.546509,255.616135 
	C716.610840,255.755280 719.160217,257.660248 719.916138,263.017761 
	C707.558533,256.281097 705.272644,258.565796 703.139771,268.467133 
	C700.499756,262.477264 702.518799,258.206543 709.546509,255.616135 
z"/>
<path fill="#000000" opacity="1.000000" stroke="none" 
	d="
M272.504700,376.965942 
	C276.663116,376.815399 276.663116,376.815399 279.297913,379.319977 
	C274.848907,379.773895 271.178589,381.135590 269.022491,385.829803 
	C266.996826,381.041504 269.100800,378.875793 272.504700,376.965942 
z"/>
</svg>