<svg version="1.1" id="Layer_1" xmlns="http://www.w3.org/2000/svg" xmlns:xlink="http://www.w3.org/1999/xlink" x="0px" y="0px"
	 width="100%" viewBox="0 0 1024 1024" enable-background="new 0 0 1024 1024" xml:space="preserve">
<path fill="#000000" opacity="1.000000" stroke="none" 
	d="
M516.227844,585.948242 
	C518.163879,602.716003 523.846802,618.056274 528.508484,633.662231 
	C530.345520,639.811890 532.988403,645.744873 533.962769,651.903076 
	C532.021301,653.692688 530.104858,653.200256 528.333984,653.203979 
	C511.668671,653.238831 495.002594,653.148254 478.338226,653.280640 
	C474.060516,653.314636 472.573792,652.395508 473.263489,647.526245 
	C475.968872,628.424683 477.473999,609.188660 478.820526,589.938843 
	C479.437469,581.118774 479.561859,572.308899 479.760437,563.484558 
	C480.086639,548.988342 474.192566,537.283997 463.830200,527.677612 
	C455.795349,520.228943 446.395874,514.896423 436.034149,511.296112 
	C434.618347,510.804169 433.173279,510.387299 431.783722,509.830933 
	C428.075745,508.346252 425.978973,505.622467 426.983795,501.630005 
	C427.959595,497.752869 431.366943,497.395599 434.668091,497.792969 
	C442.033173,498.679535 448.876617,501.171661 455.332245,504.823700 
	C464.581055,510.055817 473.466431,515.950806 483.993439,520.823364 
	C474.309967,470.944855 465.332275,421.688843 467.034851,370.936218 
	C469.759186,371.596100 469.983826,373.939301 470.984955,375.447906 
	C479.530304,388.324921 492.102875,388.687469 504.416840,382.839478 
	C506.763824,381.724854 506.647552,379.783539 506.639404,377.778076 
	C506.608276,370.112183 506.615631,362.445679 506.517487,354.780609 
	C506.360199,342.490784 513.188965,333.376068 525.120117,329.773224 
	C533.514282,327.238434 541.914429,327.931763 550.358215,329.250824 
	C568.769653,332.127014 588.101318,321.718842 594.528198,305.475464 
	C602.797424,284.575745 589.012085,260.358063 565.690430,254.814133 
	C541.971252,249.175690 518.423401,267.730835 518.281555,292.048828 
	C518.260437,295.671021 519.071411,297.644379 523.180176,297.752502 
	C527.284912,297.860535 527.676697,295.699860 527.787048,292.443298 
	C528.371582,275.194672 540.129028,263.584869 557.400269,263.008087 
	C571.818298,262.526550 585.661743,275.369934 587.223816,290.677063 
	C588.747559,305.609222 575.963623,319.371155 559.769714,320.301147 
	C553.415100,320.666046 547.138489,319.962982 540.845398,319.269379 
	C529.931458,318.066437 519.582031,319.679749 510.152161,325.682953 
	C509.495850,326.100800 508.658386,326.234161 507.259155,326.727692 
	C507.259155,296.986359 507.259155,267.697723 507.259155,238.199707 
	C511.809265,238.354263 515.919434,239.866699 520.271423,239.952682 
	C528.435425,240.113968 536.046631,238.254593 542.219910,233.062317 
	C556.917480,220.700317 575.410095,227.735107 582.070496,242.595749 
	C586.330750,252.100983 594.647583,256.916931 605.364502,257.030212 
	C617.015259,257.153412 627.636169,259.564148 634.024536,270.726898 
	C637.492798,276.787170 639.689209,283.442505 639.076294,290.302063 
	C637.551697,307.366638 648.238098,324.963501 670.324463,329.297791 
	C678.361084,330.874939 685.392334,333.658112 687.013123,342.625549 
	C688.622498,351.529694 684.807007,358.656982 677.676331,363.837128 
	C668.471619,370.523956 664.875488,379.582520 665.145447,390.655396 
	C665.330994,398.264038 668.074890,404.737396 673.692688,409.686584 
	C694.029114,427.602814 683.805908,458.433777 662.529114,467.476440 
	C654.649902,470.825134 649.755981,476.297852 648.035461,484.597443 
	C644.550415,501.409424 630.991394,512.044434 612.819031,511.848999 
	C598.410034,511.694061 587.980469,517.426758 579.759216,528.801453 
	C572.524719,538.810852 562.424011,543.564941 550.012817,543.218201 
	C539.141174,542.914368 530.562622,537.231018 528.251587,528.811951 
	C525.599609,519.150818 530.660095,506.765869 539.629150,501.603088 
	C548.705261,496.378723 558.905029,495.600647 569.034424,494.730988 
	C574.172791,494.289825 579.324890,494.007690 584.471130,493.658478 
	C586.410522,493.526855 588.141052,493.132446 588.405762,490.508698 
	C586.558167,488.575928 583.898315,488.648254 581.575073,488.483917 
	C568.118286,487.532104 554.665771,486.742279 541.167969,488.269806 
	C523.519775,490.267029 511.064423,506.703461 514.249695,524.129150 
	C515.457642,530.737549 514.872803,537.422791 514.997925,544.077393 
	C515.257446,557.889282 514.330505,571.735718 516.227844,585.948242 
M557.293762,404.567017 
	C565.614929,401.422302 574.153992,401.035706 582.868896,402.416718 
	C588.793579,403.355560 594.747620,403.917877 600.774536,403.697510 
	C618.080139,403.064728 631.131042,392.612061 634.254272,376.296906 
	C635.641663,369.049713 635.028931,361.695831 633.560425,354.459595 
	C630.597412,339.859070 619.595459,329.173645 606.523743,328.155121 
	C592.619446,327.071716 576.823853,337.228912 571.943298,350.391693 
	C577.697327,354.039917 579.081726,353.829376 583.039368,348.661499 
	C586.205078,344.527710 589.739807,340.802368 594.376587,338.276184 
	C605.101257,332.433350 615.263916,335.551453 621.008789,346.247406 
	C623.902649,351.635193 625.635193,357.382568 626.060120,363.362640 
	C627.149780,378.695923 621.425049,393.056274 601.832947,394.664520 
	C594.890137,395.234406 588.138855,394.394470 581.526611,392.980469 
	C552.981995,386.876404 530.419006,397.798553 510.670410,417.166656 
	C508.871674,418.930756 507.494263,420.862427 507.555786,423.691742 
	C507.888794,439.009705 507.959625,454.334137 508.387848,469.648895 
	C508.585876,476.730316 509.390381,483.794739 509.919952,490.866882 
	C511.213867,481.706757 511.999725,472.610291 512.766113,463.512207 
	C514.049011,448.282349 517.368225,434.002594 529.236145,422.938690 
	C537.385437,415.341492 546.326538,409.173096 557.293762,404.567017 
M647.688171,454.299042 
	C654.656433,448.515594 656.790649,441.512329 653.870239,434.012268 
	C651.159668,427.050751 644.927063,423.056061 637.036987,423.223206 
	C629.347961,423.386047 623.286194,427.871338 620.987061,435.098969 
	C618.820251,441.910553 620.884521,449.018738 626.342163,453.539215 
	C632.665833,458.777069 638.807251,459.125397 647.688171,454.299042 
M569.751160,455.939087 
	C568.518250,453.925171 566.918335,452.261749 564.975525,450.922638 
	C559.832703,447.377899 552.928528,447.306854 547.586060,450.737366 
	C541.221558,454.824188 539.149719,460.779388 540.371643,467.966705 
	C541.462097,474.380768 545.514709,478.261017 551.720337,479.786163 
	C558.067871,481.346222 563.712891,479.705109 567.962708,474.777954 
	C572.653442,469.339661 572.989136,463.088043 569.751160,455.939087 
z"/>
<path fill="#000000" opacity="1.000000" stroke="none" 
	d="
M346.999451,737.731689 
	C352.162567,737.737122 356.828918,737.848083 361.488098,737.712158 
	C364.938965,737.611450 366.459625,739.003967 366.008667,742.473694 
	C365.772675,744.289307 365.560516,746.111023 365.429016,747.936646 
	C364.761230,757.208130 364.771729,757.201965 355.256714,757.214722 
	C346.263245,757.226746 337.267853,757.369446 328.277222,757.220154 
	C324.716888,757.161072 323.140228,758.178650 323.273895,762.025208 
	C323.516693,769.011597 323.526917,776.019714 323.265106,783.004883 
	C323.115875,786.987366 324.854340,787.676147 328.348236,787.588562 
	C341.496338,787.259094 354.652924,787.272705 367.801422,786.954651 
	C371.918243,786.855103 373.648895,787.813965 373.477234,792.512390 
	C372.838196,810.005676 374.196472,806.892639 358.445435,807.050720 
	C340.627136,807.229553 322.805023,807.045837 304.984650,806.994568 
	C298.395538,806.975586 297.816742,806.533264 298.070496,799.823792 
	C299.159698,771.023010 298.328156,742.214172 298.539703,713.410339 
	C298.579987,707.921326 298.327118,702.425781 298.060547,696.940491 
	C297.881653,693.258545 299.020111,691.565857 303.130829,691.598083 
	C324.447479,691.765442 345.766449,691.739014 367.083771,691.624268 
	C370.915924,691.603638 372.652893,692.799683 372.257111,696.810120 
	C371.963531,699.785034 371.856659,702.814087 372.053528,705.793457 
	C372.365906,710.520569 370.483795,712.337646 365.680420,712.160461 
	C353.703613,711.718872 341.704742,711.830261 329.733795,711.294128 
	C324.660034,711.066895 322.805298,712.664062 323.230255,717.765259 
	C323.616058,722.395996 323.547943,727.101807 323.228546,731.743408 
	C322.923035,736.183167 324.209167,738.115967 329.017853,737.798706 
	C334.821320,737.415771 340.670319,737.722900 346.999451,737.731689 
z"/>
<path fill="#000000" opacity="1.000000" stroke="none" 
	d="
M640.846313,691.885010 
	C651.060059,694.450500 651.060120,694.450500 649.199463,704.501526 
	C647.401184,714.215759 647.408997,714.178589 637.811829,712.168518 
	C630.283325,710.591675 622.649597,709.792786 614.978699,710.416321 
	C601.891296,711.480042 591.287354,721.986694 589.566101,736.628357 
	C588.325562,747.180115 588.067993,757.887390 591.258728,768.345154 
	C595.124756,781.016113 604.476807,788.236633 617.712219,788.795898 
	C626.309631,789.159180 634.660461,788.303894 642.730957,785.176636 
	C644.232666,784.594727 645.853149,784.319092 647.840515,783.789795 
	C649.236023,789.492676 650.554382,794.773865 651.810364,800.069824 
	C652.254272,801.941772 650.999512,802.904907 649.517822,803.408386 
	C627.086914,811.030762 604.716248,812.709167 583.382751,800.440735 
	C571.939026,793.859680 566.217285,782.686523 563.308533,770.019348 
	C559.399048,752.994385 560.191467,736.235535 566.812012,720.051331 
	C573.899780,702.724548 587.859985,694.033203 605.688965,690.779968 
	C617.326721,688.656372 628.906982,689.593872 640.846313,691.885010 
z"/>
<path fill="#000000" opacity="1.000000" stroke="none" 
	d="
M672.523438,726.400757 
	C684.357544,718.663879 697.126099,717.210693 710.263000,719.568909 
	C724.421326,722.110474 733.981812,730.592285 738.064392,744.502441 
	C741.905945,757.591370 742.130127,770.799988 737.121765,783.691650 
	C732.042725,796.765442 722.696594,804.951050 708.684631,807.574768 
	C701.573853,808.906189 694.462585,809.140564 687.336060,808.102173 
	C671.806519,805.839294 661.364136,796.468140 657.586121,781.043823 
	C654.390991,767.999268 654.360901,755.018982 659.601562,742.341553 
	C662.286987,735.845337 666.396240,730.553955 672.523438,726.400757 
M707.074341,787.658142 
	C710.218750,785.362488 711.857788,782.030579 712.602661,778.427856 
	C714.678162,768.389587 715.022644,758.268066 712.136108,748.332092 
	C709.824036,740.373230 705.704468,737.111877 698.891602,736.990479 
	C691.870728,736.865356 687.015076,740.256897 684.560303,747.816833 
	C681.248230,758.016907 681.004761,768.475464 683.932983,778.783630 
	C687.134460,790.053589 696.151978,793.604675 707.074341,787.658142 
z"/>
<path fill="#000000" opacity="1.000000" stroke="none" 
	d="
M480.981934,727.922241 
	C495.098785,717.787781 510.238953,716.601929 526.013733,721.530579 
	C539.010071,725.591248 546.227051,735.135681 548.945435,748.150696 
	C550.939819,757.699097 551.020630,767.379395 548.851562,776.909180 
	C543.311768,801.249329 524.670593,810.456604 502.171600,808.739197 
	C485.702240,807.481995 473.226990,800.164856 468.437469,783.189392 
	C466.714935,777.084045 465.664490,770.804932 465.903137,764.455444 
	C466.423950,750.598083 469.599121,737.732605 480.981934,727.922241 
M496.601746,743.194946 
	C490.435699,754.988281 491.174988,767.377930 494.113678,779.681213 
	C495.978149,787.487122 500.952576,790.940918 508.022400,790.991150 
	C514.879028,791.039856 519.814575,787.392456 522.198547,779.849365 
	C525.720642,768.705139 525.388000,757.431580 521.506104,746.501892 
	C517.405273,734.955811 505.022736,733.146484 496.601746,743.194946 
z"/>
<path fill="#000000" opacity="1.000000" stroke="none" 
	d="
M450.314026,760.165527 
	C444.848389,773.991638 439.392456,787.407410 434.222717,800.932617 
	C432.567474,805.263184 430.103699,807.372925 425.330841,807.073853 
	C420.685944,806.782776 416.007965,807.011230 411.344574,807.026611 
	C408.566315,807.035767 406.682617,806.001221 405.665802,803.176880 
	C396.363708,777.339661 386.978729,751.532410 377.632812,725.710999 
	C377.245819,724.641663 376.639435,723.570007 377.310577,721.992798 
	C381.312714,719.946350 385.877228,721.044922 390.237793,721.052979 
	C405.334930,721.080872 402.410187,718.770386 407.056854,733.370483 
	C411.492523,747.307739 415.253754,761.459351 419.327271,775.512207 
	C419.824158,777.226318 420.419037,778.911987 421.033783,780.812683 
	C423.096069,779.368713 423.148682,777.419189 423.674255,775.771973 
	C428.983612,759.132080 434.367279,742.513489 439.399323,725.789429 
	C440.594696,721.816589 442.396942,720.319275 446.458069,720.874695 
	C450.239075,721.391724 454.083496,721.638733 457.900513,721.644043 
	C461.741791,721.649414 462.851288,723.022095 461.974182,726.849243 
	C459.355194,738.277100 454.231018,748.799744 450.314026,760.165527 
z"/>
<path fill="#000000" opacity="1.000000" stroke="none" 
	d="
M685.230530,285.830475 
	C693.305115,296.369232 693.570129,307.132233 687.573608,318.287231 
	C686.454895,320.368195 685.146423,322.276489 682.415222,322.456482 
	C668.933472,323.344940 651.565491,317.683411 648.083984,298.897583 
	C647.502686,295.760925 647.408386,292.585846 647.910217,289.468018 
	C649.889404,277.169678 656.784058,273.534698 671.176331,277.120056 
	C676.651184,278.483948 681.265808,281.308289 685.230530,285.830475 
z"/>
<path fill="#000000" opacity="1.000000" stroke="none" 
	d="
M629.777832,834.341919 
	C632.074585,837.716736 631.058777,841.129089 631.153381,844.400818 
	C631.200195,846.019165 630.688599,847.487061 628.632996,847.328613 
	C626.848694,847.191101 626.812134,845.767395 626.651184,844.394470 
	C626.391418,842.178955 627.432678,839.753479 625.575256,837.521362 
	C622.083069,838.663940 623.677917,841.617065 623.291260,843.736206 
	C623.000061,845.332214 623.398071,847.405457 620.899780,847.280151 
	C618.787659,847.174194 619.058472,845.333740 618.900879,843.869385 
	C618.663696,841.666199 619.500183,839.268982 617.793884,836.886841 
	C615.348206,839.135803 616.534729,841.756775 616.333374,844.016235 
	C616.123413,846.373840 615.602417,847.557129 612.750061,847.434326 
	C607.552979,847.210449 602.331177,847.529236 597.120667,847.659546 
	C594.779785,847.718140 593.241699,846.735535 592.873718,844.380554 
	C592.643616,842.908142 592.688171,841.393799 592.588379,839.899780 
	C592.499329,838.567505 591.859985,837.613708 590.453369,837.636963 
	C589.074341,837.659729 588.399597,838.616577 588.297546,839.929626 
	C588.220337,840.923523 588.327576,841.935242 588.209106,842.921692 
	C588.007446,844.600586 588.860229,847.038147 586.164978,847.292725 
	C582.880371,847.602722 584.032349,844.661865 583.293091,842.495300 
	C581.668640,844.743225 580.522156,847.109131 577.728760,847.824219 
	C574.571045,848.632507 572.817749,846.472229 570.561707,844.858276 
	C567.877136,848.093018 562.483459,847.256531 560.819397,852.434875 
	C560.267212,854.153198 557.992615,852.238281 557.878418,850.353394 
	C557.718018,847.705627 557.837891,845.040955 557.837891,842.201477 
	C556.545776,843.846252 558.038208,847.365906 554.751770,846.962219 
	C552.002258,846.624451 553.037354,843.849609 552.733948,842.017212 
	C552.481689,840.494202 553.360779,838.601807 551.085449,837.496338 
	C548.309937,839.069641 549.705139,841.858337 549.340393,844.089539 
	C549.134949,845.346497 549.580872,847.024292 547.715515,847.250427 
	C545.681641,847.496948 545.325867,845.931763 545.103149,844.352783 
	C544.815674,842.314880 545.530151,840.085815 543.968567,837.833069 
	C541.593628,839.834534 542.562744,842.299927 542.319336,844.414978 
	C542.143433,845.944153 541.735718,848.332886 540.120483,847.438354 
	C535.281494,844.758301 529.781982,851.134216 525.242493,846.049805 
	C524.924438,845.693604 522.943176,847.008362 521.678223,847.275818 
	C518.319946,847.985779 515.026855,848.273315 512.682373,844.911926 
	C510.205658,841.360962 510.085022,835.381226 512.612488,832.184326 
	C515.170837,828.948120 518.662231,828.265747 522.509521,829.006653 
	C523.852905,829.265381 525.274231,829.949158 524.825317,831.639038 
	C524.263611,833.753845 522.600098,833.047729 521.137939,832.682678 
	C518.645142,832.060364 516.724304,833.140991 515.819885,835.302917 
	C514.846680,837.629395 514.673218,840.266174 516.240112,842.469971 
	C517.512146,844.259033 519.494934,843.716431 521.300659,843.305664 
	C523.280945,842.855164 523.581970,841.295654 524.040466,839.598999 
	C525.639343,833.683044 528.469543,832.490662 534.411255,833.522461 
	C539.152832,834.345947 544.048157,833.031189 548.918579,833.012329 
	C552.957397,832.996765 555.747681,833.239380 557.308777,837.288635 
	C560.847229,831.653076 564.600281,831.235962 570.694824,835.827332 
	C573.766907,832.541687 577.031067,833.304871 581.328796,834.052612 
	C585.386780,834.758789 590.846924,833.718201 594.692017,829.607605 
	C597.056763,833.501343 600.548279,832.672729 604.091248,833.281555 
	C609.898804,834.279541 615.373047,832.245422 620.944641,833.204468 
	C623.779053,833.692383 626.881287,831.326111 629.777832,834.341919 
M563.169312,843.046936 
	C565.478333,844.134399 566.234375,842.609131 566.496826,840.844299 
	C566.793030,838.852478 566.222534,837.210022 563.704590,837.081970 
	C561.861206,838.646790 562.272766,840.585022 563.169312,843.046936 
M530.582397,843.490173 
	C533.514221,842.664124 533.324463,840.598145 532.337036,838.512390 
	C531.785767,837.347900 530.369385,837.023315 529.445068,837.996826 
	C527.715576,839.818542 527.700256,841.737549 530.582397,843.490173 
M575.290039,838.433716 
	C575.153381,840.033386 574.594421,841.726868 576.422791,843.099243 
	C578.645630,842.045898 578.880676,840.213379 578.141418,838.226318 
	C577.640564,836.880249 576.589905,836.554199 575.290039,838.433716 
M599.384949,841.040833 
	C599.443604,839.896790 601.548523,838.997314 599.849854,837.671814 
	C599.160645,837.133972 598.081116,837.060547 597.568359,837.706116 
	C596.230652,839.390564 596.567932,841.242310 597.242126,842.995605 
	C598.661560,843.186035 598.773132,842.229248 599.384949,841.040833 
z"/>
<path fill="#000000" opacity="1.000000" stroke="none" 
	d="
M696.521973,407.960205 
	C683.108521,413.459869 672.679626,400.027039 673.851379,386.995300 
	C674.902954,375.298859 682.472412,368.770325 692.401672,364.220398 
	C693.965027,363.503967 695.333008,363.933746 696.648987,364.755615 
	C704.766174,369.825256 710.167786,376.766541 710.156738,386.656128 
	C710.146057,396.271240 705.782715,403.559326 696.521973,407.960205 
z"/>
<path fill="#000000" opacity="1.000000" stroke="none" 
	d="
M524.038086,195.619324 
	C533.665588,198.080734 539.749084,203.996063 543.453247,212.596115 
	C545.060303,216.327316 544.583984,219.529251 541.750610,222.657791 
	C533.580688,231.678894 523.681519,234.462875 511.950592,231.714172 
	C508.038727,230.797577 506.541565,228.722549 506.652618,224.678162 
	C506.880737,216.368713 506.900787,208.040878 506.602692,199.735107 
	C506.458221,195.709549 508.187592,194.388412 511.782227,194.310349 
	C515.790588,194.223297 519.742432,194.557846 524.038086,195.619324 
z"/>
<path fill="#000000" opacity="1.000000" stroke="none" 
	d="
M497.252228,334.899536 
	C502.203888,342.378418 502.094116,349.640747 497.388550,356.675018 
	C493.028290,363.193024 486.420410,365.226105 479.030518,364.079163 
	C471.792786,362.955811 467.258026,358.335754 465.173767,351.316193 
	C462.610077,342.681946 466.308807,333.275635 473.982727,328.974792 
	C481.702698,324.648132 489.991241,326.668427 497.252228,334.899536 
z"/>
<path fill="#000000" opacity="1.000000" stroke="none" 
	d="
M593.901062,528.974243 
	C602.947266,521.030457 614.433289,521.216248 620.124268,529.116150 
	C625.397583,536.436279 624.424133,546.353943 617.859131,552.193726 
	C611.231934,558.089050 600.896301,558.109314 594.598572,552.239258 
	C588.130920,546.210754 587.761780,537.197754 593.901062,528.974243 
z"/>
<path fill="#000000" opacity="1.000000" stroke="none" 
	d="
M616.507812,244.438721 
	C610.121277,250.240082 602.648621,251.275055 596.119263,247.493515 
	C589.529785,243.677124 586.031372,236.336197 587.495850,229.398849 
	C589.526733,219.779053 598.695740,214.329880 608.330688,217.016724 
	C617.423767,219.552460 622.893494,229.308105 620.096985,238.103210 
	C619.390747,240.324127 618.429504,242.452454 616.507812,244.438721 
z"/>
<path fill="#000000" opacity="1.000000" stroke="none" 
	d="
M687.404114,489.749023 
	C688.554504,500.814209 681.919495,509.095093 672.051758,509.368317 
	C661.751587,509.653503 654.504639,502.783508 654.802551,493.016541 
	C655.062256,484.503601 662.349670,476.695892 670.809753,475.866364 
	C678.597900,475.102661 685.206299,480.486481 687.404114,489.749023 
z"/>
<path fill="#000000" opacity="1.000000" stroke="none" 
	d="
M709.696594,842.300537 
	C713.429504,842.147522 711.771301,839.383240 711.956543,837.635315 
	C712.271729,834.661621 712.676575,833.247681 716.608093,833.014893 
	C721.733582,832.711487 726.793701,833.689270 731.919006,832.971619 
	C736.589233,832.317749 737.492188,836.008118 738.247620,840.323853 
	C737.097656,835.029419 738.950500,832.641357 743.651672,832.732666 
	C746.912231,832.795959 748.853088,834.608093 749.782959,839.179199 
	C750.153687,834.283813 751.949219,832.569275 755.793152,832.672485 
	C759.562866,832.773560 761.814697,834.151672 762.557800,838.666626 
	C764.083618,835.733459 765.320251,833.149292 768.519226,832.859070 
	C770.260803,832.701111 771.848816,833.059937 773.236877,834.092957 
	C776.244568,836.331299 776.987854,841.900574 774.729431,844.967712 
	C772.108032,848.527832 768.427307,848.575317 763.402222,845.064209 
	C761.967346,845.520691 761.937195,848.344421 759.656189,847.462341 
	C757.330627,846.563049 758.100464,844.462036 757.841980,842.746948 
	C757.560547,840.878845 758.584106,838.731689 756.548889,836.970764 
	C753.546082,838.343750 754.355286,841.108032 754.347534,843.358948 
	C754.336670,846.504150 753.321777,847.403381 749.932495,847.587524 
	C744.978821,847.856750 740.106445,846.136414 735.142029,847.437866 
	C733.141968,847.962280 732.858887,846.214966 732.657776,844.585938 
	C732.372192,842.272766 733.545044,839.649780 731.468262,837.551392 
	C728.435669,838.728149 729.674683,841.234436 729.337646,843.174316 
	C729.056274,844.793884 730.103699,847.415344 727.189575,847.288025 
	C724.537903,847.172180 725.233093,844.699402 725.089355,842.982849 
	C724.954712,841.375366 725.301392,839.685181 724.090393,837.791382 
	C721.586243,839.571228 722.399048,842.041748 722.320251,844.117126 
	C722.217957,846.811401 721.345703,848.215515 718.354248,847.615295 
	C717.258057,847.395447 716.059998,847.692200 714.907837,847.740601 
	C705.523315,848.134644 702.982727,845.156189 704.737976,835.890686 
	C705.004578,834.483887 705.361023,833.163513 707.070251,833.214233 
	C708.810913,833.265930 709.097290,834.668945 709.187134,836.059021 
	C709.315735,838.047180 709.395447,840.038452 709.696594,842.300537 
M770.645630,837.495361 
	C767.373718,836.399536 767.487732,838.779053 767.393311,840.765991 
	C767.324402,842.213623 767.854553,843.682251 769.591003,843.360229 
	C771.703552,842.968445 771.728943,841.094238 771.562988,839.366394 
	C771.517395,838.891785 771.237732,838.439636 770.645630,837.495361 
z"/>
<path fill="#000000" opacity="1.000000" stroke="none" 
	d="
M293.931824,837.604675 
	C289.266479,836.333374 288.454651,838.746094 288.294067,842.346436 
	C288.218414,844.042236 289.752686,846.996643 286.730652,847.263672 
	C283.360443,847.561401 284.985138,844.094543 284.263306,842.147583 
	C280.154144,849.130737 276.739349,849.594971 270.650299,844.097961 
	C267.442505,848.078186 263.471985,847.907349 258.644379,847.294189 
	C252.159103,846.470581 245.460953,847.144043 238.865570,847.433838 
	C234.979446,847.604675 233.368637,846.160278 233.626938,842.234009 
	C233.845184,838.916565 233.663620,835.573425 233.680405,832.241760 
	C233.687546,830.824768 233.899460,829.425415 235.762299,829.520569 
	C237.590820,829.613953 237.709167,831.106812 237.688660,832.453552 
	C237.653214,834.781616 237.588669,837.118652 237.347244,839.432190 
	C236.895142,843.764526 239.593246,843.845886 242.711273,843.698914 
	C246.349869,843.527222 247.525101,839.420715 246.903992,838.362793 
	C245.042419,835.191895 246.241898,834.049866 248.830353,833.189514 
	C252.024460,832.127808 254.915802,832.701904 256.347870,836.071289 
	C257.082977,837.800964 257.151703,839.813843 257.495209,841.564270 
	C257.869843,837.868896 258.260406,834.063354 258.638885,830.256653 
	C258.770874,828.929077 258.718079,827.341370 260.526489,827.273743 
	C262.029327,827.217529 262.324615,828.541504 262.353973,829.760071 
	C262.396393,831.521423 263.051086,832.651672 264.980469,832.648743 
	C267.713593,832.644531 268.866699,834.915344 270.448059,836.524963 
	C277.010803,831.511047 278.979706,831.611084 283.668976,837.141113 
	C285.438660,833.110657 294.241608,830.623413 300.560913,833.294006 
	C307.060425,836.040833 303.197357,842.257690 304.829651,847.618103 
	C300.182098,846.437927 295.232635,850.371582 292.890228,844.316711 
	C291.772430,841.427185 293.354614,839.771912 298.884216,837.467896 
	C297.069916,836.408203 295.693634,838.328735 293.931824,837.604675 
M262.530884,838.586182 
	C262.460602,839.231323 262.316742,839.878479 262.335022,840.521118 
	C262.376190,841.968079 262.249908,843.902771 264.457916,843.399353 
	C266.307251,842.977722 266.802490,841.097229 266.329620,839.449158 
	C265.859436,837.810425 265.132599,835.623718 262.530884,838.586182 
M275.305389,841.191223 
	C275.588135,842.612671 276.173492,843.854004 277.889191,843.272278 
	C279.305786,842.792114 279.647186,841.448364 279.594910,840.043640 
	C279.548065,838.784912 279.099030,837.660034 277.729553,837.560730 
	C275.731018,837.415771 275.368317,838.902893 275.305389,841.191223 
z"/>
<path fill="#000000" opacity="1.000000" stroke="none" 
	d="
M654.334717,833.165771 
	C656.495483,832.812805 658.295654,832.582520 660.044617,833.473816 
	C661.714600,834.324890 662.848022,833.795349 663.675049,832.148254 
	C665.170654,829.169556 666.620056,829.054626 668.662659,831.923706 
	C670.008789,833.814758 672.220032,833.935486 674.536682,833.069702 
	C677.817017,831.843689 680.890259,832.328186 682.818970,835.547913 
	C684.628540,838.568787 685.100769,841.909058 683.085693,845.002258 
	C680.981323,848.232605 677.755188,848.641846 674.248840,847.679504 
	C673.769897,847.548096 673.237427,847.082092 672.857849,847.196472 
	C665.014282,849.559509 662.685059,845.607666 663.677551,837.739624 
	C661.665771,839.808105 662.429199,841.345154 662.236084,842.714294 
	C661.979736,844.531677 663.024048,847.291687 660.067993,847.434387 
	C656.991089,847.582886 657.862183,844.795166 657.652527,842.962280 
	C657.454102,841.227295 658.103210,839.293884 656.401001,837.681030 
	C653.405762,838.981079 654.442871,841.604919 654.384521,843.666382 
	C654.304077,846.510010 653.739563,848.363220 650.320068,847.132690 
	C648.411560,846.445923 646.810974,847.828430 645.011414,848.001465 
	C641.859009,848.304504 639.597473,846.842163 637.682373,844.361511 
	C636.569214,845.991150 636.158813,848.360474 633.704041,847.391357 
	C631.749817,846.619690 632.034424,844.689697 632.096924,843.068359 
	C632.250305,839.089600 632.525269,835.115601 632.733887,831.138794 
	C632.816528,829.564575 633.006287,827.849976 635.037231,828.021240 
	C637.154175,828.199768 636.937317,829.942810 636.614624,831.471252 
	C636.336670,832.787292 636.115417,834.080627 636.991089,835.742004 
	C640.578003,833.137024 644.232727,831.620789 648.585693,834.473145 
	C650.044556,835.429016 651.772644,832.171509 654.334717,833.165771 
M667.831482,842.376709 
	C673.455688,842.767944 669.975708,839.644775 670.096191,837.273315 
	C667.379822,838.293762 667.366394,839.982788 667.831482,842.376709 
z"/>
<path fill="#000000" opacity="1.000000" stroke="none" 
	d="
M368.752472,391.109802 
	C380.507324,389.811462 388.230408,397.164032 385.996338,407.017670 
	C384.431946,413.917694 378.885071,418.429718 372.130005,418.297058 
	C365.513245,418.167114 360.276031,413.633209 358.952332,406.889038 
	C357.696075,400.488251 361.583313,394.015442 368.752472,391.109802 
z"/>
<path fill="#000000" opacity="1.000000" stroke="none" 
	d="
M348.381042,348.714203 
	C340.323944,347.064545 335.683075,341.938202 335.813446,335.188232 
	C335.940826,328.593414 340.765137,322.870941 347.086151,321.816956 
	C354.253357,320.621887 360.462402,324.016357 362.708984,330.357910 
	C366.024353,339.716400 359.607300,348.202789 348.381042,348.714203 
z"/>
<path fill="#000000" opacity="1.000000" stroke="none" 
	d="
M384.201660,244.437729 
	C389.650146,248.310165 391.620148,253.358688 390.286713,259.387817 
	C389.066956,264.902985 384.463684,268.753876 379.091614,269.253723 
	C373.833191,269.743073 368.967346,268.715088 366.163605,263.746155 
	C363.235535,258.556854 362.467194,252.954590 365.904205,247.697998 
	C369.129242,242.765610 374.307373,242.207870 379.646973,242.829712 
	C381.086487,242.997375 382.457397,243.754333 384.201660,244.437729 
z"/>
<path fill="#000000" opacity="1.000000" stroke="none" 
	d="
M447.357788,429.564484 
	C453.592865,436.934204 453.738586,445.024048 448.006409,450.284393 
	C444.788940,453.237000 442.839905,452.965393 440.700836,449.248322 
	C438.913116,446.141724 436.670441,447.073547 435.222931,449.171478 
	C432.764465,452.734619 430.747650,451.504272 428.440430,449.249115 
	C423.948822,444.858826 423.240723,438.011658 426.732330,432.330322 
	C429.991852,427.026611 436.443085,424.651215 442.270355,426.768646 
	C443.957886,427.381805 445.479858,428.450592 447.357788,429.564484 
z"/>
<path fill="#000000" opacity="1.000000" stroke="none" 
	d="
M313.297119,846.296021 
	C307.237732,848.802673 305.784058,847.865967 305.757233,841.843628 
	C305.750610,840.360535 305.822571,838.790833 305.380280,837.414612 
	C304.563629,834.873230 304.975616,832.696472 307.014740,831.143799 
	C309.463837,829.279053 310.873840,831.744385 312.534302,832.904419 
	C313.206360,833.373962 313.801880,833.953003 314.416168,834.468689 
	C321.013672,832.138977 321.979645,832.357788 325.623291,837.098877 
	C326.445404,829.380981 332.180267,835.034363 335.274292,833.414673 
	C336.381104,832.561279 335.509277,831.630615 335.408295,830.708679 
	C335.199982,828.807556 336.177338,827.794250 338.019470,828.014099 
	C339.653625,828.209167 340.255737,829.498169 339.792023,830.967773 
	C339.172028,832.932739 339.282898,834.864563 339.396027,836.968140 
	C344.315155,832.239990 347.948059,831.684998 351.023163,835.078796 
	C353.942719,838.300781 353.647675,843.602356 350.401550,846.249878 
	C346.759796,849.220154 343.325012,848.205505 339.660736,842.909973 
	C338.757080,844.297241 339.910065,847.121094 337.329498,846.993530 
	C335.052490,846.880859 335.393005,844.667175 335.165253,843.102112 
	C334.998199,841.954163 335.052521,840.775513 334.925049,839.619751 
	C334.781372,838.316467 334.125702,837.383606 332.688904,837.461426 
	C331.312439,837.535950 330.621643,838.474792 330.497345,839.759155 
	C330.369446,841.080872 330.420624,842.418884 330.329498,843.745361 
	C330.230682,845.184753 330.575745,846.980774 328.477722,847.280701 
	C325.967102,847.639709 326.210236,845.439575 325.564056,843.603271 
	C322.431183,849.159912 318.116455,848.266235 313.297119,846.296021 
M344.351410,838.630859 
	C343.258606,840.993896 343.547577,843.051941 346.375427,843.469482 
	C348.214386,843.741028 348.758057,841.952759 348.639008,840.356995 
	C348.451904,837.848816 347.408966,836.542908 344.351410,838.630859 
M317.308746,839.846130 
	C317.260864,841.184570 317.132172,842.635254 318.760620,843.140198 
	C319.645264,843.414551 320.352905,842.812378 320.643738,841.944641 
	C321.080658,840.640991 321.247284,839.240845 320.103363,838.262512 
	C318.875488,837.212463 318.009155,837.975037 317.308746,839.846130 
z"/>
<path fill="#000000" opacity="1.000000" stroke="none" 
	d="
M477.977966,255.694931 
	C483.881714,250.934067 483.627167,248.812622 476.521301,245.101547 
	C474.706848,244.153946 474.871307,242.778687 475.192352,241.311264 
	C475.992249,237.655090 478.691132,235.811646 481.929535,234.567993 
	C487.174347,232.553818 493.643555,234.379852 497.233002,238.856110 
	C501.227173,243.837036 501.450287,250.280853 497.809784,255.513245 
	C494.628632,260.085449 488.668243,261.999542 483.218292,260.312561 
	C480.848663,259.579071 479.100922,258.227020 477.977966,255.694931 
z"/>
<path fill="#000000" opacity="1.000000" stroke="none" 
	d="
M438.656097,316.881653 
	C431.162231,318.567841 426.309113,316.852936 423.072479,311.609680 
	C420.098236,306.791412 420.771423,299.935181 424.674164,295.296326 
	C428.154297,291.159790 433.958923,289.779388 439.230865,291.834625 
	C444.078461,293.724457 446.181915,297.599518 445.127869,303.161346 
	C442.436432,302.233948 439.875336,300.437958 436.839386,302.547607 
	C433.942749,304.560455 433.212006,306.914978 434.892181,309.772095 
	C436.564453,312.615784 438.900848,311.947784 441.346344,310.485596 
	C442.809631,309.610687 443.820984,307.638763 446.598206,308.314880 
	C446.095490,313.055603 443.242615,315.470734 438.656097,316.881653 
z"/>
<path fill="#000000" opacity="1.000000" stroke="none" 
	d="
M418.455933,232.143524 
	C427.320587,236.195435 430.087433,246.125870 424.182526,251.752106 
	C420.777161,254.996750 416.841095,255.962631 412.242004,254.107666 
	C407.688171,252.270935 405.264008,248.866547 405.046753,244.235260 
	C404.833954,239.698425 406.499878,235.727249 410.853119,233.441177 
	C413.111115,232.255402 415.488586,231.607224 418.455933,232.143524 
z"/>
<path fill="#000000" opacity="1.000000" stroke="none" 
	d="
M452.929565,204.507767 
	C455.482513,211.759399 453.850555,218.439987 449.040649,221.394547 
	C446.964417,222.669891 445.057892,223.363632 444.111389,220.054169 
	C441.877930,212.244934 436.843750,207.671661 428.097931,207.089645 
	C428.351837,201.402954 432.144287,199.260635 436.501801,197.856674 
	C443.024811,195.755020 448.746918,198.074020 452.929565,204.507767 
z"/>
<path fill="#000000" opacity="1.000000" stroke="none" 
	d="
M410.751587,466.462280 
	C417.375305,464.457581 421.991150,465.592072 424.972687,469.694427 
	C427.890869,473.709503 427.933990,478.641937 424.919434,482.693939 
	C422.201843,486.346771 418.462585,487.983856 413.985687,487.094238 
	C409.086609,486.120789 406.061981,482.898529 405.191132,478.022919 
	C404.321014,473.151398 405.956421,469.190857 410.751587,466.462280 
z"/>
<path fill="#000000" opacity="1.000000" stroke="none" 
	d="
M307.579834,435.106567 
	C301.193573,432.091583 298.715332,427.716187 300.040802,422.428986 
	C301.317505,417.336273 306.423950,413.471619 311.460876,413.786072 
	C316.884979,414.124664 321.082001,418.099854 321.794678,423.573608 
	C322.696564,430.500275 316.709045,435.538788 307.579834,435.106567 
z"/>
<path fill="#000000" opacity="1.000000" stroke="none" 
	d="
M443.174622,833.810364 
	C446.524994,834.371399 449.457520,834.020752 452.611237,833.047791 
	C455.125702,832.272156 457.942566,832.827271 458.395630,829.075195 
	C458.553009,827.771790 459.939789,827.414734 461.212036,827.739014 
	C462.332306,828.024536 462.983551,828.989624 462.764679,829.993347 
	C462.033020,833.348816 463.617737,836.603271 463.057709,839.909790 
	C462.655518,842.284546 464.159302,845.929321 461.647583,846.770142 
	C458.540985,847.810120 454.927521,848.779419 451.428162,847.699707 
	C448.777374,846.881958 447.619812,844.828796 447.261749,841.927917 
	C447.681305,847.957520 443.328400,847.603027 439.783722,847.697510 
	C435.772186,847.804382 434.563660,844.762634 434.056580,841.394531 
	C433.933411,840.576538 433.878754,839.719177 433.978088,838.902405 
	C434.238861,836.758362 433.235687,833.331360 436.591278,833.462280 
	C439.763031,833.585876 438.092682,836.867065 438.400146,838.776733 
	C438.655151,840.360779 438.120636,842.214233 440.538208,843.047913 
	C443.976135,840.851562 441.777893,836.974365 443.174622,833.810364 
M452.406860,839.116577 
	C451.968201,840.974854 451.755737,842.840637 453.952362,843.714661 
	C455.234192,844.224731 456.662750,844.071716 457.461151,842.751465 
	C458.272156,841.410217 458.426483,839.736755 457.486816,838.525085 
	C456.124084,836.767944 454.370941,837.088928 452.406860,839.116577 
z"/>
<path fill="#000000" opacity="1.000000" stroke="none" 
	d="
M358.335144,842.393188 
	C357.776886,837.502441 359.159668,834.107178 363.972900,833.000610 
	C365.655365,832.613708 366.652252,831.874878 366.725616,830.059570 
	C366.794098,828.366028 367.519928,826.973816 369.422363,827.297180 
	C371.350281,827.624756 371.176239,829.416992 371.267303,830.904053 
	C371.347198,832.208679 371.454193,833.511658 371.582062,835.266113 
	C376.294403,833.667847 381.636810,830.142334 383.961090,837.429626 
	C385.778290,843.127197 380.237823,841.649353 377.485931,842.538391 
	C377.815521,843.755859 378.517365,843.668335 379.143402,843.724976 
	C380.612396,843.857849 382.967834,842.242676 383.265594,844.782776 
	C383.593903,847.583435 380.791107,847.525452 378.940369,847.709106 
	C373.648956,848.234253 372.226654,844.582886 371.534882,840.280823 
	C370.362152,842.599182 372.887604,846.514709 368.611786,847.186462 
	C364.433228,847.842834 360.090302,848.226379 358.335144,842.393188 
M364.736359,843.299194 
	C367.844238,842.387573 367.004974,840.153259 366.248566,838.204407 
	C365.851624,837.181702 364.546875,837.078186 363.738159,837.826599 
	C362.026855,839.410645 361.847900,841.169983 363.686920,842.865906 
	C363.804535,842.974426 363.964050,843.037598 364.736359,843.299194 
z"/>
<path fill="#000000" opacity="1.000000" stroke="none" 
	d="
M380.821045,439.899048 
	C384.937500,442.371124 386.872589,445.601624 385.806763,450.070160 
	C384.608246,455.095032 379.506714,458.308624 374.890381,457.135529 
	C370.602570,456.045959 367.459625,450.214630 368.648529,445.554657 
	C369.912689,440.599731 374.443756,438.369873 380.821045,439.899048 
z"/>
<path fill="#000000" opacity="1.000000" stroke="none" 
	d="
M401.982300,832.018372 
	C406.982849,831.324402 406.848846,835.996887 408.626434,838.757996 
	C411.492218,834.084839 416.581085,831.781372 421.903687,832.780701 
	C425.300079,833.418335 427.022125,835.796387 427.268524,839.110901 
	C427.524109,842.548401 427.296997,845.986389 423.253571,847.281067 
	C419.910461,848.351562 416.971161,847.695679 415.047577,844.444397 
	C414.544189,843.593567 414.159149,842.672791 413.707611,841.759644 
	C413.366577,841.944641 413.068451,842.029846 412.877960,842.221802 
	C411.321869,843.790283 411.918732,847.393188 408.877563,847.340332 
	C405.611633,847.283508 405.847626,843.818542 404.775024,841.755005 
	C403.320404,838.956665 402.234192,835.973816 401.988770,832.383850 
	C402.001068,831.998779 401.982300,832.018372 401.982300,832.018372 
M422.920807,840.357056 
	C422.783539,838.822632 422.591064,837.239075 420.478943,837.519226 
	C419.142914,837.696411 418.711212,838.880554 418.533386,840.045471 
	C418.311188,841.501038 418.872375,842.724792 420.287231,843.173767 
	C422.041138,843.730469 422.535828,842.414246 422.920807,840.357056 
z"/>
<path fill="#000000" opacity="1.000000" stroke="none" 
	d="
M699.516113,844.887207 
	C699.520874,844.195190 699.540771,843.862854 699.550110,843.530212 
	C699.609192,841.432251 699.612549,839.306885 696.668213,839.355286 
	C693.847168,839.401672 694.397278,841.629456 694.212341,843.373779 
	C694.030945,845.085205 694.659180,847.552063 691.934937,847.527954 
	C689.261841,847.504395 689.718140,845.097351 689.695984,843.348694 
	C689.647522,839.521973 689.682129,835.693665 689.730408,831.866577 
	C689.749939,830.316162 689.908691,828.738525 692.022827,828.717712 
	C693.829407,828.700073 694.142883,830.019104 694.224182,831.432312 
	C694.328430,833.243591 694.670044,834.792664 697.018494,834.665833 
	C699.313049,834.541809 699.545410,832.913086 699.647156,831.158386 
	C699.720032,829.900391 700.073181,828.748962 701.584473,828.758728 
	C703.175049,828.769043 703.205444,830.067688 703.396484,831.247498 
	C704.119507,835.713623 704.095337,840.198242 703.783386,844.688232 
	C703.702209,845.856567 703.482483,847.106201 702.079651,847.433960 
	C700.322144,847.844604 699.684631,846.786926 699.516113,844.887207 
z"/>
<path fill="#000000" opacity="1.000000" stroke="none" 
	d="
M402.010468,831.988647 
	C399.712250,832.629333 397.114227,831.721008 394.654297,833.124084 
	C396.009186,836.398499 400.644257,833.310242 401.382721,837.056885 
	C400.634705,839.052063 398.709076,838.606323 397.209869,838.916931 
	C395.575409,839.255493 394.302124,839.804077 394.507263,841.755188 
	C394.694000,843.531128 396.085083,843.626587 397.454102,843.704590 
	C398.609283,843.770386 399.775146,843.784851 400.913513,843.965576 
	C401.811981,844.108276 402.339996,844.761536 402.354736,845.708740 
	C402.370422,846.718689 401.714844,847.252747 400.830597,847.316528 
	C398.193939,847.506714 395.546783,847.743591 392.910034,847.683838 
	C390.547272,847.630249 390.021027,845.805603 389.990143,843.831299 
	C389.933167,840.187622 389.982361,836.541687 389.879913,832.899658 
	C389.800629,830.080261 391.006470,828.328735 393.860687,828.384827 
	C396.805511,828.442749 400.710022,826.215271 401.973480,831.623047 
	C401.982300,832.018372 402.001068,831.998779 402.010468,831.988647 
z"/>
<path fill="#000000" opacity="1.000000" stroke="none" 
	d="
M469.284271,847.905029 
	C462.230255,844.452576 461.455048,837.818848 467.446198,833.485474 
	C469.097565,832.291016 469.113342,830.891174 469.571014,829.372192 
	C469.989563,827.982971 471.128906,827.093689 472.585815,827.284973 
	C474.401978,827.523193 474.499481,829.079895 474.027069,830.349792 
	C473.207123,832.553894 474.312836,834.017578 475.292450,835.805908 
	C478.471100,841.608521 476.008026,846.741333 469.284271,847.905029 
M468.367950,841.815491 
	C468.975708,843.370728 470.006592,843.952454 471.333435,842.725830 
	C472.319916,841.813843 472.820496,840.539734 472.231934,839.151306 
	C471.834686,838.214233 471.197266,837.317322 470.046692,837.603027 
	C468.200623,838.061584 468.170776,839.613159 468.367950,841.815491 
z"/>
<path fill="#000000" opacity="1.000000" stroke="none" 
	d="
M477.120056,837.411499 
	C477.384583,832.652222 480.275177,832.644348 483.512817,832.875793 
	C486.772644,833.108887 488.928955,834.446533 489.188110,837.874390 
	C489.350128,840.017456 489.279633,842.183105 489.220459,844.336060 
	C489.182922,845.702820 488.921783,847.162292 487.182739,847.230591 
	C485.068054,847.313782 485.047089,845.601318 484.864990,844.104736 
	C484.580109,841.763611 485.462708,839.191223 483.678162,836.887207 
	C480.600098,838.328491 481.608948,840.909424 481.344879,843.038757 
	C481.139954,844.691101 482.117340,847.268616 479.373962,847.327942 
	C476.332001,847.393738 477.114410,844.674500 477.021667,842.825867 
	C476.938782,841.173706 477.049316,839.511841 477.120056,837.411499 
z"/>
<path fill="#000000" opacity="1.000000" stroke="none" 
	d="
M498.267273,845.174011 
	C497.161896,842.204346 496.142242,839.574646 495.168701,836.927979 
	C494.643524,835.500244 494.026520,833.820068 495.949463,833.090942 
	C498.065308,832.288696 498.865997,833.885498 499.423218,835.602905 
	C499.771454,836.676208 500.226013,837.714966 500.735657,839.035583 
	C503.083069,837.462158 502.303040,832.981445 507.040436,833.582764 
	C505.813599,840.434692 503.337860,846.529419 499.500397,852.066101 
	C498.740479,853.162476 497.165283,853.535950 495.998779,852.287659 
	C494.835266,851.042725 495.365173,849.818665 496.476105,848.831909 
	C497.497986,847.924255 498.408112,846.997559 498.267273,845.174011 
z"/>
<path fill="#000000" opacity="1.000000" stroke="none" 
	d="
M427.969818,840.864502 
	C428.178864,836.757751 428.381317,833.105835 428.592102,829.454407 
	C428.661285,828.255371 428.762970,827.031555 430.349365,826.913818 
	C432.152527,826.779968 432.473480,827.985718 432.688416,829.445923 
	C433.400604,834.283752 432.417450,839.069885 432.336121,843.881531 
	C432.312164,845.299561 432.640045,847.224182 430.468353,847.327515 
	C428.114105,847.439575 428.049042,845.516113 427.961273,843.815552 
	C427.918457,842.985840 427.962006,842.151672 427.969818,840.864502 
z"/>
<path fill="#000000" opacity="1.000000" stroke="none" 
	d="
M422.500732,376.791504 
	C424.989197,376.859314 427.096405,376.859314 429.370575,376.859314 
	C427.567505,380.051208 425.562439,380.733154 421.606812,379.756287 
	C415.944702,378.357971 413.071930,375.242645 412.816956,370.015717 
	C417.217010,370.548096 417.709198,376.441742 422.500732,376.791504 
z"/>
<path fill="#000000" opacity="1.000000" stroke="none" 
	d="
M430.745117,355.768707 
	C429.036987,359.901489 426.917297,357.756592 424.399445,356.390167 
	C426.351471,353.123749 428.441162,354.199188 430.745117,355.768707 
z"/>
<path fill="#000000" opacity="1.000000" stroke="none" 
	d="
M417.592010,357.960236 
	C415.979584,359.735596 414.606537,361.316681 413.233490,362.897797 
	C412.906830,358.373718 415.971893,356.937469 419.351501,355.551300 
	C419.771851,357.131073 418.298065,357.075134 417.592010,357.960236 
z"/>
</svg>